<mxfile host="app.diagrams.net" modified="2023-10-17T14:14:42.473Z" agent="Mozilla/5.0 (Windows NT 10.0; Win64; x64) AppleWebKit/537.36 (KHTML, like Gecko) Chrome/117.0.0.0 Safari/537.36 Edg/117.0.2045.60" etag="tlyTibsMTcK1MLDgbzeq" version="22.0.4" type="github">
  <diagram id="q74jGIT0rdsw6B9sfl-8" name="Page-1">
    <mxGraphModel dx="2329" dy="1744" grid="1" gridSize="10" guides="1" tooltips="1" connect="1" arrows="0" fold="1" page="1" pageScale="1" pageWidth="827" pageHeight="1169" math="0" shadow="0">
      <root>
        <mxCell id="0" />
        <mxCell id="1" parent="0" />
        <mxCell id="1-QfFzFVaWJn7AieKZZL-43" value="" style="rounded=0;whiteSpace=wrap;html=1;" parent="1" vertex="1">
          <mxGeometry x="-459.99999999999994" y="3450" width="790" height="450" as="geometry" />
        </mxCell>
        <mxCell id="1-QfFzFVaWJn7AieKZZL-20" value="" style="rounded=0;whiteSpace=wrap;html=1;" parent="1" vertex="1">
          <mxGeometry x="-381.9199999999999" y="3490" width="390" height="170" as="geometry" />
        </mxCell>
        <mxCell id="t3kxCUk_UYJJ-cdm4f_f-27" value="Data Frame：&lt;br style=&quot;border-color: var(--border-color);&quot;&gt;Source MAC Address&lt;br style=&quot;border-color: var(--border-color);&quot;&gt;Destination MAC Address&lt;br style=&quot;border-color: var(--border-color);&quot;&gt;Data&lt;br&gt;局域网" style="rounded=0;whiteSpace=wrap;html=1;" parent="1" vertex="1">
          <mxGeometry x="-563.3" y="5400" width="291.25" height="130" as="geometry" />
        </mxCell>
        <mxCell id="t3kxCUk_UYJJ-cdm4f_f-25" value="Packet：&lt;br style=&quot;border-color: var(--border-color);&quot;&gt;Source IP Address&lt;br style=&quot;border-color: var(--border-color);&quot;&gt;Destination IP Address&lt;br style=&quot;border-color: var(--border-color);&quot;&gt;Payload&lt;br&gt;互联网" style="rounded=0;whiteSpace=wrap;html=1;" parent="1" vertex="1">
          <mxGeometry x="-563.3" y="5270" width="291.25" height="130" as="geometry" />
        </mxCell>
        <mxCell id="t3kxCUk_UYJJ-cdm4f_f-24" value="TCP/UDP报文：&lt;br style=&quot;border-color: var(--border-color);&quot;&gt;Source Port&lt;br style=&quot;border-color: var(--border-color);&quot;&gt;Destination Port&lt;br&gt;Sequence Number 数据包重排&lt;br&gt;Acknowledgment Number&amp;nbsp;超时重传&lt;br&gt;Window Size 流量控制&lt;br&gt;拥塞控制算法" style="rounded=0;whiteSpace=wrap;html=1;" parent="1" vertex="1">
          <mxGeometry x="-563.29" y="5090" width="291.25" height="180" as="geometry" />
        </mxCell>
        <mxCell id="t3kxCUk_UYJJ-cdm4f_f-23" value="HTTP/DNS/SSH/FTP.....&lt;br&gt;多种报文格式" style="rounded=0;whiteSpace=wrap;html=1;" parent="1" vertex="1">
          <mxGeometry x="-563.3" y="4960" width="291.25" height="130" as="geometry" />
        </mxCell>
        <mxCell id="jQRCav7DTQBNGYD-x8mf-218" value="" style="rounded=0;whiteSpace=wrap;html=1;endArrow=none;dashed=1;html=1;dashPattern=1 3;strokeWidth=2;rounded=0;" parent="1" vertex="1">
          <mxGeometry x="99" y="2170" width="630" height="300" as="geometry" />
        </mxCell>
        <mxCell id="jQRCav7DTQBNGYD-x8mf-180" value="" style="rounded=0;whiteSpace=wrap;html=1;endArrow=none;dashed=1;html=1;dashPattern=1 3;strokeWidth=2;rounded=0;" parent="1" vertex="1">
          <mxGeometry x="111.25" y="1680" width="630" height="400" as="geometry" />
        </mxCell>
        <mxCell id="jQRCav7DTQBNGYD-x8mf-2" style="edgeStyle=orthogonalEdgeStyle;rounded=0;orthogonalLoop=1;jettySize=auto;html=1;exitX=1;exitY=0.5;exitDx=0;exitDy=0;entryX=0;entryY=0.5;entryDx=0;entryDy=0;" parent="1" source="GEgLhVlXAB5wURAWG2Ov-58" target="GEgLhVlXAB5wURAWG2Ov-59" edge="1">
          <mxGeometry relative="1" as="geometry" />
        </mxCell>
        <mxCell id="GEgLhVlXAB5wURAWG2Ov-58" value="" style="rounded=0;whiteSpace=wrap;html=1;" parent="1" vertex="1">
          <mxGeometry x="-655.62" y="1240" width="505.62" height="340" as="geometry" />
        </mxCell>
        <mxCell id="GEgLhVlXAB5wURAWG2Ov-53" style="edgeStyle=orthogonalEdgeStyle;rounded=0;orthogonalLoop=1;jettySize=auto;html=1;exitX=0.5;exitY=1;exitDx=0;exitDy=0;entryX=0.5;entryY=0;entryDx=0;entryDy=0;" parent="1" source="GEgLhVlXAB5wURAWG2Ov-21" target="GEgLhVlXAB5wURAWG2Ov-50" edge="1">
          <mxGeometry relative="1" as="geometry" />
        </mxCell>
        <mxCell id="GEgLhVlXAB5wURAWG2Ov-21" value="" style="rounded=0;whiteSpace=wrap;html=1;" parent="1" vertex="1">
          <mxGeometry x="-640" y="525" width="470" height="305" as="geometry" />
        </mxCell>
        <mxCell id="GEgLhVlXAB5wURAWG2Ov-48" value="" style="rounded=0;whiteSpace=wrap;html=1;endArrow=none;dashed=1;html=1;dashPattern=1 3;strokeWidth=2;rounded=0;" parent="1" vertex="1">
          <mxGeometry x="-610" y="582.5" width="408.75" height="190" as="geometry" />
        </mxCell>
        <mxCell id="GEgLhVlXAB5wURAWG2Ov-47" style="edgeStyle=orthogonalEdgeStyle;rounded=0;orthogonalLoop=1;jettySize=auto;html=1;exitX=0.5;exitY=0;exitDx=0;exitDy=0;entryX=0.75;entryY=1;entryDx=0;entryDy=0;" parent="1" source="GEgLhVlXAB5wURAWG2Ov-41" target="GEgLhVlXAB5wURAWG2Ov-9" edge="1">
          <mxGeometry relative="1" as="geometry" />
        </mxCell>
        <mxCell id="GEgLhVlXAB5wURAWG2Ov-41" value="" style="rounded=0;whiteSpace=wrap;html=1;endArrow=none;dashed=1;html=1;dashPattern=1 3;strokeWidth=2;rounded=0;" parent="1" vertex="1">
          <mxGeometry x="-28.75" y="525" width="324.75" height="330" as="geometry" />
        </mxCell>
        <mxCell id="GEgLhVlXAB5wURAWG2Ov-46" style="edgeStyle=orthogonalEdgeStyle;rounded=0;orthogonalLoop=1;jettySize=auto;html=1;exitX=0.5;exitY=0;exitDx=0;exitDy=0;entryX=0.25;entryY=1;entryDx=0;entryDy=0;" parent="1" source="GEgLhVlXAB5wURAWG2Ov-21" target="GEgLhVlXAB5wURAWG2Ov-9" edge="1">
          <mxGeometry relative="1" as="geometry" />
        </mxCell>
        <mxCell id="GEgLhVlXAB5wURAWG2Ov-4" value="" style="rounded=1;whiteSpace=wrap;html=1;" parent="1" vertex="1">
          <mxGeometry x="-58.87999999999999" y="-440" width="142" height="440" as="geometry" />
        </mxCell>
        <mxCell id="cuOZ3U2S4svU4EkSFh8x-16" value="" style="rounded=0;whiteSpace=wrap;html=1;" parent="1" vertex="1">
          <mxGeometry x="895.25" y="1815" width="464.75" height="140" as="geometry" />
        </mxCell>
        <mxCell id="KB4VtI-CPYROKvUSriaM-39" value="" style="rounded=0;whiteSpace=wrap;html=1;" parent="1" vertex="1">
          <mxGeometry x="-510.17" y="1904.5" width="500" height="415.5" as="geometry" />
        </mxCell>
        <mxCell id="gXKH7BePIXmSOS_r9Qfp-1" style="edgeStyle=orthogonalEdgeStyle;rounded=0;orthogonalLoop=1;jettySize=auto;html=1;exitX=0.5;exitY=1;exitDx=0;exitDy=0;" parent="1" edge="1">
          <mxGeometry relative="1" as="geometry">
            <mxPoint x="-302.04" y="1934.5" as="sourcePoint" />
            <mxPoint x="-302.04" y="1934.5" as="targetPoint" />
          </mxGeometry>
        </mxCell>
        <mxCell id="gXKH7BePIXmSOS_r9Qfp-2" value="磁盘" style="rounded=1;whiteSpace=wrap;html=1;" parent="1" vertex="1">
          <mxGeometry x="-705.62" y="2380" width="691.25" height="70" as="geometry" />
        </mxCell>
        <mxCell id="KB4VtI-CPYROKvUSriaM-55" value="全局锁" style="rounded=0;whiteSpace=wrap;html=1;" parent="1" vertex="1">
          <mxGeometry x="964.25" y="2060" width="245" height="60" as="geometry" />
        </mxCell>
        <mxCell id="bzMrh9cclYOT93m_ledv-2" style="edgeStyle=orthogonalEdgeStyle;rounded=0;orthogonalLoop=1;jettySize=auto;html=1;exitX=1;exitY=1;exitDx=0;exitDy=0;" parent="1" source="KB4VtI-CPYROKvUSriaM-56" target="cuOZ3U2S4svU4EkSFh8x-11" edge="1">
          <mxGeometry relative="1" as="geometry" />
        </mxCell>
        <mxCell id="KB4VtI-CPYROKvUSriaM-56" value="表级锁" style="rounded=0;whiteSpace=wrap;html=1;" parent="1" vertex="1">
          <mxGeometry x="964.25" y="2120" width="120" height="60" as="geometry" />
        </mxCell>
        <mxCell id="cuOZ3U2S4svU4EkSFh8x-1" value="InnoDB引擎" style="text;html=1;align=center;verticalAlign=middle;resizable=0;points=[];autosize=1;strokeColor=none;fillColor=none;" parent="1" vertex="1">
          <mxGeometry x="-511.42" y="1904.5" width="90" height="30" as="geometry" />
        </mxCell>
        <mxCell id="cuOZ3U2S4svU4EkSFh8x-4" value="redo log（prepare）&lt;br&gt;page_id，循环写入" style="rounded=0;whiteSpace=wrap;html=1;" parent="1" vertex="1">
          <mxGeometry x="-364.85" y="2010" width="209.37" height="50" as="geometry" />
        </mxCell>
        <mxCell id="cuOZ3U2S4svU4EkSFh8x-5" value="bin log&lt;br&gt;sql_statement，顺序写入，success" style="rounded=0;whiteSpace=wrap;html=1;" parent="1" vertex="1">
          <mxGeometry x="-430.17" y="2060" width="340" height="50" as="geometry" />
        </mxCell>
        <mxCell id="cuOZ3U2S4svU4EkSFh8x-6" value="redo log（commit）" style="rounded=0;whiteSpace=wrap;html=1;" parent="1" vertex="1">
          <mxGeometry x="-362.90000000000003" y="2110" width="205.47" height="50" as="geometry" />
        </mxCell>
        <mxCell id="cuOZ3U2S4svU4EkSFh8x-11" value="NKL：行锁（RW） &amp;amp; 间隙锁" style="rounded=0;whiteSpace=wrap;html=1;" parent="1" vertex="1">
          <mxGeometry x="964.25" y="2222" width="240" height="60" as="geometry" />
        </mxCell>
        <mxCell id="cuOZ3U2S4svU4EkSFh8x-18" value="" style="endArrow=classic;html=1;rounded=0;" parent="1" edge="1">
          <mxGeometry width="50" height="50" relative="1" as="geometry">
            <mxPoint x="1094.75" y="1871.5" as="sourcePoint" />
            <mxPoint x="1294.75" y="1871.5" as="targetPoint" />
          </mxGeometry>
        </mxCell>
        <mxCell id="cuOZ3U2S4svU4EkSFh8x-20" value="" style="endArrow=classic;html=1;rounded=0;" parent="1" edge="1">
          <mxGeometry width="50" height="50" relative="1" as="geometry">
            <mxPoint x="1049.5" y="1924.5" as="sourcePoint" />
            <mxPoint x="1189.5" y="1924.5" as="targetPoint" />
          </mxGeometry>
        </mxCell>
        <mxCell id="cuOZ3U2S4svU4EkSFh8x-21" value="事务隔离级别 RC，RR" style="text;html=1;align=center;verticalAlign=middle;resizable=0;points=[];autosize=1;strokeColor=none;fillColor=none;" parent="1" vertex="1">
          <mxGeometry x="895.25" y="1815" width="150" height="30" as="geometry" />
        </mxCell>
        <mxCell id="tsQgyrK2YesAGFFAEJuU-1" value="元数据锁" style="rounded=0;whiteSpace=wrap;html=1;" parent="1" vertex="1">
          <mxGeometry x="1084.25" y="2120" width="125" height="60" as="geometry" />
        </mxCell>
        <mxCell id="ad75EcGbPsBwS58N0D---11" value="哨兵1" style="ellipse;whiteSpace=wrap;html=1;aspect=fixed;" parent="1" vertex="1">
          <mxGeometry x="724" y="2710" width="80" height="80" as="geometry" />
        </mxCell>
        <mxCell id="ad75EcGbPsBwS58N0D---12" value="哨兵3" style="ellipse;whiteSpace=wrap;html=1;aspect=fixed;" parent="1" vertex="1">
          <mxGeometry x="764" y="2780" width="80" height="80" as="geometry" />
        </mxCell>
        <mxCell id="ad75EcGbPsBwS58N0D---13" value="哨兵2" style="ellipse;whiteSpace=wrap;html=1;aspect=fixed;" parent="1" vertex="1">
          <mxGeometry x="684" y="2780" width="80" height="80" as="geometry" />
        </mxCell>
        <mxCell id="ad75EcGbPsBwS58N0D---17" value="主" style="rounded=0;whiteSpace=wrap;html=1;" parent="1" vertex="1">
          <mxGeometry x="380" y="2653" width="69" height="40" as="geometry" />
        </mxCell>
        <mxCell id="ad75EcGbPsBwS58N0D---18" value="从" style="rounded=0;whiteSpace=wrap;html=1;" parent="1" vertex="1">
          <mxGeometry x="210" y="2780" width="69" height="40" as="geometry" />
        </mxCell>
        <mxCell id="ad75EcGbPsBwS58N0D---19" style="edgeStyle=orthogonalEdgeStyle;rounded=0;orthogonalLoop=1;jettySize=auto;html=1;exitX=0.5;exitY=1;exitDx=0;exitDy=0;entryX=0.5;entryY=0;entryDx=0;entryDy=0;" parent="1" source="ad75EcGbPsBwS58N0D---21" target="ad75EcGbPsBwS58N0D---23" edge="1">
          <mxGeometry relative="1" as="geometry" />
        </mxCell>
        <mxCell id="ad75EcGbPsBwS58N0D---20" style="edgeStyle=orthogonalEdgeStyle;rounded=0;orthogonalLoop=1;jettySize=auto;html=1;exitX=0.5;exitY=1;exitDx=0;exitDy=0;entryX=0.5;entryY=0;entryDx=0;entryDy=0;" parent="1" source="ad75EcGbPsBwS58N0D---21" target="ad75EcGbPsBwS58N0D---24" edge="1">
          <mxGeometry relative="1" as="geometry" />
        </mxCell>
        <mxCell id="ad75EcGbPsBwS58N0D---21" value="从" style="rounded=0;whiteSpace=wrap;html=1;" parent="1" vertex="1">
          <mxGeometry x="380" y="2780" width="69" height="40" as="geometry" />
        </mxCell>
        <mxCell id="ad75EcGbPsBwS58N0D---22" value="从" style="rounded=0;whiteSpace=wrap;html=1;" parent="1" vertex="1">
          <mxGeometry x="530" y="2780" width="69" height="40" as="geometry" />
        </mxCell>
        <mxCell id="ad75EcGbPsBwS58N0D---23" value="从" style="rounded=0;whiteSpace=wrap;html=1;" parent="1" vertex="1">
          <mxGeometry x="294.5" y="2870" width="69" height="40" as="geometry" />
        </mxCell>
        <mxCell id="ad75EcGbPsBwS58N0D---24" value="从" style="rounded=0;whiteSpace=wrap;html=1;" parent="1" vertex="1">
          <mxGeometry x="465.5" y="2870" width="69" height="40" as="geometry" />
        </mxCell>
        <mxCell id="jQRCav7DTQBNGYD-x8mf-253" style="edgeStyle=orthogonalEdgeStyle;rounded=0;orthogonalLoop=1;jettySize=auto;html=1;exitX=0.5;exitY=1;exitDx=0;exitDy=0;entryX=0.499;entryY=-0.013;entryDx=0;entryDy=0;entryPerimeter=0;" parent="1" source="ad75EcGbPsBwS58N0D---26" target="jQRCav7DTQBNGYD-x8mf-237" edge="1">
          <mxGeometry relative="1" as="geometry" />
        </mxCell>
        <mxCell id="ad75EcGbPsBwS58N0D---26" value="客户端" style="rounded=1;whiteSpace=wrap;html=1;" parent="1" vertex="1">
          <mxGeometry x="-288.75" y="2710" width="120" height="60" as="geometry" />
        </mxCell>
        <mxCell id="ad75EcGbPsBwS58N0D---27" value="磁盘" style="rounded=1;whiteSpace=wrap;html=1;" parent="1" vertex="1">
          <mxGeometry x="-388.75" y="2960" width="320" height="50" as="geometry" />
        </mxCell>
        <mxCell id="ad75EcGbPsBwS58N0D---28" value="AOF" style="rounded=1;whiteSpace=wrap;html=1;" parent="1" vertex="1">
          <mxGeometry x="-228.75" y="2900" width="160" height="45" as="geometry" />
        </mxCell>
        <mxCell id="ad75EcGbPsBwS58N0D---29" value="RDB" style="rounded=1;whiteSpace=wrap;html=1;" parent="1" vertex="1">
          <mxGeometry x="-388.75" y="2900" width="160" height="45" as="geometry" />
        </mxCell>
        <mxCell id="SLdGGWgJqBino60vr2zq-12" value="数据库" style="rounded=1;whiteSpace=wrap;html=1;" parent="1" vertex="1">
          <mxGeometry x="-440" y="3040" width="1070" height="60" as="geometry" />
        </mxCell>
        <mxCell id="6-CSaQUG5OHRiRnEXRL_-1" value="globalLock&lt;br&gt;commit" style="ellipse;whiteSpace=wrap;html=1;aspect=fixed;" parent="1" vertex="1">
          <mxGeometry x="-26.130000000000017" y="-300" width="80" height="80" as="geometry" />
        </mxCell>
        <mxCell id="6-CSaQUG5OHRiRnEXRL_-2" value="&lt;br&gt;&lt;br&gt;localLock&lt;br&gt;prepare&lt;br&gt;commit/rollback" style="rounded=1;whiteSpace=wrap;html=1;" parent="1" vertex="1">
          <mxGeometry x="-425.77" y="-310" width="120" height="100" as="geometry" />
        </mxCell>
        <mxCell id="GEgLhVlXAB5wURAWG2Ov-1" value="DataSourceProxy&lt;br style=&quot;border-color: var(--border-color);&quot;&gt;xid-undo_log&lt;br style=&quot;border-color: var(--border-color);&quot;&gt;timerExecutor" style="rounded=1;whiteSpace=wrap;html=1;fillColor=#f5f5f5;fontColor=#333333;strokeColor=#666666;" parent="1" vertex="1">
          <mxGeometry x="-425.77" y="-210" width="120" height="60" as="geometry" />
        </mxCell>
        <mxCell id="GEgLhVlXAB5wURAWG2Ov-9" value="name-server cluster" style="rounded=1;whiteSpace=wrap;html=1;" parent="1" vertex="1">
          <mxGeometry x="-184.67000000000002" y="320" width="175" height="110" as="geometry" />
        </mxCell>
        <mxCell id="GEgLhVlXAB5wURAWG2Ov-19" value="consumer group" style="rounded=1;whiteSpace=wrap;html=1;" parent="1" vertex="1">
          <mxGeometry x="73.62" y="699" width="120" height="110" as="geometry" />
        </mxCell>
        <mxCell id="9n-n1iBPHZ0IUt7xd2MY-6" style="edgeStyle=orthogonalEdgeStyle;rounded=0;orthogonalLoop=1;jettySize=auto;html=1;exitX=0;exitY=0.5;exitDx=0;exitDy=0;entryX=1;entryY=0.25;entryDx=0;entryDy=0;" parent="1" source="GEgLhVlXAB5wURAWG2Ov-20" target="GEgLhVlXAB5wURAWG2Ov-21" edge="1">
          <mxGeometry relative="1" as="geometry" />
        </mxCell>
        <mxCell id="GEgLhVlXAB5wURAWG2Ov-20" value="producer group" style="rounded=1;whiteSpace=wrap;html=1;" parent="1" vertex="1">
          <mxGeometry x="73.62" y="546" width="120" height="110" as="geometry" />
        </mxCell>
        <mxCell id="GEgLhVlXAB5wURAWG2Ov-23" value="register route info" style="text;html=1;align=center;verticalAlign=middle;resizable=0;points=[];autosize=1;strokeColor=none;fillColor=none;" parent="1" vertex="1">
          <mxGeometry x="-275" y="450" width="120" height="30" as="geometry" />
        </mxCell>
        <mxCell id="GEgLhVlXAB5wURAWG2Ov-29" value="discovery" style="text;html=1;align=center;verticalAlign=middle;resizable=0;points=[];autosize=1;strokeColor=none;fillColor=none;" parent="1" vertex="1">
          <mxGeometry x="-3.75" y="450" width="70" height="30" as="geometry" />
        </mxCell>
        <mxCell id="GEgLhVlXAB5wURAWG2Ov-31" value="send" style="text;html=1;align=center;verticalAlign=middle;resizable=0;points=[];autosize=1;strokeColor=none;fillColor=none;" parent="1" vertex="1">
          <mxGeometry x="-118.74999999999996" y="570" width="50" height="30" as="geometry" />
        </mxCell>
        <mxCell id="GEgLhVlXAB5wURAWG2Ov-33" value="pull/push receive" style="text;html=1;align=center;verticalAlign=middle;resizable=0;points=[];autosize=1;strokeColor=none;fillColor=none;" parent="1" vertex="1">
          <mxGeometry x="-155.00000000000003" y="720" width="110" height="30" as="geometry" />
        </mxCell>
        <mxCell id="GEgLhVlXAB5wURAWG2Ov-35" value="broker master-slave cluster" style="text;html=1;align=center;verticalAlign=middle;resizable=0;points=[];autosize=1;strokeColor=none;fillColor=none;" parent="1" vertex="1">
          <mxGeometry x="-640" y="525" width="170" height="30" as="geometry" />
        </mxCell>
        <mxCell id="GEgLhVlXAB5wURAWG2Ov-36" value="2pc-tx，timer/depay，order" style="rounded=1;whiteSpace=wrap;html=1;" parent="1" vertex="1">
          <mxGeometry x="-540.62" y="625" width="270" height="110" as="geometry" />
        </mxCell>
        <mxCell id="GEgLhVlXAB5wURAWG2Ov-37" value="message" style="text;html=1;align=center;verticalAlign=middle;resizable=0;points=[];autosize=1;strokeColor=none;fillColor=none;" parent="1" vertex="1">
          <mxGeometry x="-540.62" y="625" width="70" height="30" as="geometry" />
        </mxCell>
        <mxCell id="GEgLhVlXAB5wURAWG2Ov-40" value="topic group &amp;amp; msg-queues &amp;amp; tags" style="text;html=1;align=center;verticalAlign=middle;resizable=0;points=[];autosize=1;strokeColor=none;fillColor=none;" parent="1" vertex="1">
          <mxGeometry x="-610" y="582.5" width="200" height="30" as="geometry" />
        </mxCell>
        <mxCell id="GEgLhVlXAB5wURAWG2Ov-50" value="刷盘" style="rounded=1;whiteSpace=wrap;html=1;" parent="1" vertex="1">
          <mxGeometry x="-640" y="870" width="470" height="60" as="geometry" />
        </mxCell>
        <mxCell id="GEgLhVlXAB5wURAWG2Ov-55" value="" style="rounded=1;whiteSpace=wrap;html=1;" parent="1" vertex="1">
          <mxGeometry x="-620" y="1320" width="310" height="190" as="geometry" />
        </mxCell>
        <mxCell id="GEgLhVlXAB5wURAWG2Ov-56" value="dockerfile&lt;br&gt;network&lt;br&gt;volume&lt;br&gt;port" style="rounded=1;whiteSpace=wrap;html=1;" parent="1" vertex="1">
          <mxGeometry x="-292" y="1320" width="117" height="190" as="geometry" />
        </mxCell>
        <mxCell id="GEgLhVlXAB5wURAWG2Ov-57" value="docker daemon" style="text;html=1;align=center;verticalAlign=middle;resizable=0;points=[];autosize=1;strokeColor=none;fillColor=none;" parent="1" vertex="1">
          <mxGeometry x="-660" y="1248" width="110" height="30" as="geometry" />
        </mxCell>
        <mxCell id="jQRCav7DTQBNGYD-x8mf-3" style="edgeStyle=orthogonalEdgeStyle;rounded=0;orthogonalLoop=1;jettySize=auto;html=1;exitX=0;exitY=0.5;exitDx=0;exitDy=0;entryX=1;entryY=0.5;entryDx=0;entryDy=0;" parent="1" source="GEgLhVlXAB5wURAWG2Ov-59" target="GEgLhVlXAB5wURAWG2Ov-58" edge="1">
          <mxGeometry relative="1" as="geometry" />
        </mxCell>
        <mxCell id="GEgLhVlXAB5wURAWG2Ov-59" value="registry&lt;br&gt;（docker hub）" style="rounded=1;whiteSpace=wrap;html=1;" parent="1" vertex="1">
          <mxGeometry x="-110" y="1240" width="90" height="340" as="geometry" />
        </mxCell>
        <mxCell id="GEgLhVlXAB5wURAWG2Ov-69" style="edgeStyle=orthogonalEdgeStyle;rounded=0;orthogonalLoop=1;jettySize=auto;html=1;exitX=0.5;exitY=1;exitDx=0;exitDy=0;" parent="1" source="GEgLhVlXAB5wURAWG2Ov-60" target="GEgLhVlXAB5wURAWG2Ov-58" edge="1">
          <mxGeometry relative="1" as="geometry" />
        </mxCell>
        <mxCell id="GEgLhVlXAB5wURAWG2Ov-60" value="docker client" style="rounded=1;whiteSpace=wrap;html=1;" parent="1" vertex="1">
          <mxGeometry x="-645.31" y="1100" width="485.31" height="60" as="geometry" />
        </mxCell>
        <mxCell id="GEgLhVlXAB5wURAWG2Ov-62" value="rest" style="text;html=1;align=center;verticalAlign=middle;resizable=0;points=[];autosize=1;strokeColor=none;fillColor=none;" parent="1" vertex="1">
          <mxGeometry x="-400" y="1178" width="40" height="30" as="geometry" />
        </mxCell>
        <mxCell id="GEgLhVlXAB5wURAWG2Ov-63" value="image" style="text;html=1;align=center;verticalAlign=middle;resizable=0;points=[];autosize=1;strokeColor=none;fillColor=none;" parent="1" vertex="1">
          <mxGeometry x="-620" y="1320" width="60" height="30" as="geometry" />
        </mxCell>
        <mxCell id="GEgLhVlXAB5wURAWG2Ov-64" value="Base Image" style="rounded=0;whiteSpace=wrap;html=1;" parent="1" vertex="1">
          <mxGeometry x="-590" y="1440" width="120" height="40" as="geometry" />
        </mxCell>
        <mxCell id="GEgLhVlXAB5wURAWG2Ov-66" value="Image Layer1" style="rounded=0;whiteSpace=wrap;html=1;" parent="1" vertex="1">
          <mxGeometry x="-590" y="1400" width="120" height="40" as="geometry" />
        </mxCell>
        <mxCell id="GEgLhVlXAB5wURAWG2Ov-67" value="Image&amp;nbsp;Layer2" style="rounded=0;whiteSpace=wrap;html=1;" parent="1" vertex="1">
          <mxGeometry x="-590" y="1360" width="120" height="40" as="geometry" />
        </mxCell>
        <mxCell id="GEgLhVlXAB5wURAWG2Ov-68" value="container" style="text;html=1;align=center;verticalAlign=middle;resizable=0;points=[];autosize=1;strokeColor=none;fillColor=none;" parent="1" vertex="1">
          <mxGeometry x="-292" y="1320" width="70" height="30" as="geometry" />
        </mxCell>
        <mxCell id="jQRCav7DTQBNGYD-x8mf-1" value="TC&amp;nbsp;Coordinator" style="text;html=1;align=center;verticalAlign=middle;resizable=0;points=[];autosize=1;strokeColor=none;fillColor=none;" parent="1" vertex="1">
          <mxGeometry x="-58.88000000000002" y="-440" width="110" height="30" as="geometry" />
        </mxCell>
        <mxCell id="jQRCav7DTQBNGYD-x8mf-4" value="&lt;br&gt;" style="rounded=1;whiteSpace=wrap;html=1;" parent="1" vertex="1">
          <mxGeometry x="-701.42" y="1760.5" width="691.75" height="80" as="geometry" />
        </mxCell>
        <mxCell id="jQRCav7DTQBNGYD-x8mf-6" value="MyISAM&lt;br&gt;Memory" style="rounded=0;whiteSpace=wrap;html=1;" parent="1" vertex="1">
          <mxGeometry x="-701.42" y="1904.5" width="120" height="415.5" as="geometry" />
        </mxCell>
        <mxCell id="jQRCav7DTQBNGYD-x8mf-7" value="undo log&lt;br&gt;page_id，original_data" style="rounded=0;whiteSpace=wrap;html=1;" parent="1" vertex="1">
          <mxGeometry x="-364.85" y="1934.5" width="200.17" height="45.5" as="geometry" />
        </mxCell>
        <mxCell id="jQRCav7DTQBNGYD-x8mf-61" value="" style="shape=table;startSize=0;container=1;collapsible=0;childLayout=tableLayout;" parent="1" vertex="1">
          <mxGeometry x="340" y="1770" width="200" height="90" as="geometry" />
        </mxCell>
        <mxCell id="jQRCav7DTQBNGYD-x8mf-62" value="" style="shape=tableRow;horizontal=0;startSize=0;swimlaneHead=0;swimlaneBody=0;strokeColor=inherit;top=0;left=0;bottom=0;right=0;collapsible=0;dropTarget=0;fillColor=none;points=[[0,0.5],[1,0.5]];portConstraint=eastwest;" parent="jQRCav7DTQBNGYD-x8mf-61" vertex="1">
          <mxGeometry width="200" height="30" as="geometry" />
        </mxCell>
        <mxCell id="jQRCav7DTQBNGYD-x8mf-63" value="3" style="shape=partialRectangle;html=1;whiteSpace=wrap;connectable=0;strokeColor=inherit;overflow=hidden;fillColor=none;top=0;left=0;bottom=0;right=0;pointerEvents=1;" parent="jQRCav7DTQBNGYD-x8mf-62" vertex="1">
          <mxGeometry width="50" height="30" as="geometry">
            <mxRectangle width="50" height="30" as="alternateBounds" />
          </mxGeometry>
        </mxCell>
        <mxCell id="jQRCav7DTQBNGYD-x8mf-64" value="8" style="shape=partialRectangle;html=1;whiteSpace=wrap;connectable=0;strokeColor=inherit;overflow=hidden;fillColor=none;top=0;left=0;bottom=0;right=0;pointerEvents=1;" parent="jQRCav7DTQBNGYD-x8mf-62" vertex="1">
          <mxGeometry x="50" width="50" height="30" as="geometry">
            <mxRectangle width="50" height="30" as="alternateBounds" />
          </mxGeometry>
        </mxCell>
        <mxCell id="jQRCav7DTQBNGYD-x8mf-65" value="" style="shape=partialRectangle;html=1;whiteSpace=wrap;connectable=0;strokeColor=inherit;overflow=hidden;fillColor=none;top=0;left=0;bottom=0;right=0;pointerEvents=1;" parent="jQRCav7DTQBNGYD-x8mf-62" vertex="1">
          <mxGeometry x="100" width="50" height="30" as="geometry">
            <mxRectangle width="50" height="30" as="alternateBounds" />
          </mxGeometry>
        </mxCell>
        <mxCell id="jQRCav7DTQBNGYD-x8mf-66" value="" style="shape=partialRectangle;html=1;whiteSpace=wrap;connectable=0;strokeColor=inherit;overflow=hidden;fillColor=none;top=0;left=0;bottom=0;right=0;pointerEvents=1;" parent="jQRCav7DTQBNGYD-x8mf-62" vertex="1">
          <mxGeometry x="150" width="50" height="30" as="geometry">
            <mxRectangle width="50" height="30" as="alternateBounds" />
          </mxGeometry>
        </mxCell>
        <mxCell id="jQRCav7DTQBNGYD-x8mf-67" value="" style="shape=tableRow;horizontal=0;startSize=0;swimlaneHead=0;swimlaneBody=0;strokeColor=inherit;top=0;left=0;bottom=0;right=0;collapsible=0;dropTarget=0;fillColor=none;points=[[0,0.5],[1,0.5]];portConstraint=eastwest;" parent="jQRCav7DTQBNGYD-x8mf-61" vertex="1">
          <mxGeometry y="30" width="200" height="30" as="geometry" />
        </mxCell>
        <mxCell id="jQRCav7DTQBNGYD-x8mf-68" value="1" style="shape=partialRectangle;html=1;whiteSpace=wrap;connectable=0;strokeColor=inherit;overflow=hidden;fillColor=none;top=0;left=0;bottom=0;right=0;pointerEvents=1;" parent="jQRCav7DTQBNGYD-x8mf-67" vertex="1">
          <mxGeometry width="50" height="30" as="geometry">
            <mxRectangle width="50" height="30" as="alternateBounds" />
          </mxGeometry>
        </mxCell>
        <mxCell id="jQRCav7DTQBNGYD-x8mf-69" value="8" style="shape=partialRectangle;html=1;whiteSpace=wrap;connectable=0;strokeColor=inherit;overflow=hidden;fillColor=none;top=0;left=0;bottom=0;right=0;pointerEvents=1;" parent="jQRCav7DTQBNGYD-x8mf-67" vertex="1">
          <mxGeometry x="50" width="50" height="30" as="geometry">
            <mxRectangle width="50" height="30" as="alternateBounds" />
          </mxGeometry>
        </mxCell>
        <mxCell id="jQRCav7DTQBNGYD-x8mf-70" value="" style="shape=partialRectangle;html=1;whiteSpace=wrap;connectable=0;strokeColor=inherit;overflow=hidden;fillColor=none;top=0;left=0;bottom=0;right=0;pointerEvents=1;" parent="jQRCav7DTQBNGYD-x8mf-67" vertex="1">
          <mxGeometry x="100" width="50" height="30" as="geometry">
            <mxRectangle width="50" height="30" as="alternateBounds" />
          </mxGeometry>
        </mxCell>
        <mxCell id="jQRCav7DTQBNGYD-x8mf-71" value="" style="shape=partialRectangle;html=1;whiteSpace=wrap;connectable=0;strokeColor=inherit;overflow=hidden;fillColor=none;top=0;left=0;bottom=0;right=0;pointerEvents=1;" parent="jQRCav7DTQBNGYD-x8mf-67" vertex="1">
          <mxGeometry x="150" width="50" height="30" as="geometry">
            <mxRectangle width="50" height="30" as="alternateBounds" />
          </mxGeometry>
        </mxCell>
        <mxCell id="jQRCav7DTQBNGYD-x8mf-72" value="" style="shape=tableRow;horizontal=0;startSize=0;swimlaneHead=0;swimlaneBody=0;strokeColor=inherit;top=0;left=0;bottom=0;right=0;collapsible=0;dropTarget=0;fillColor=none;points=[[0,0.5],[1,0.5]];portConstraint=eastwest;" parent="jQRCav7DTQBNGYD-x8mf-61" vertex="1">
          <mxGeometry y="60" width="200" height="30" as="geometry" />
        </mxCell>
        <mxCell id="jQRCav7DTQBNGYD-x8mf-73" value="1" style="shape=partialRectangle;html=1;whiteSpace=wrap;connectable=0;strokeColor=inherit;overflow=hidden;fillColor=none;top=0;left=0;bottom=0;right=0;pointerEvents=1;" parent="jQRCav7DTQBNGYD-x8mf-72" vertex="1">
          <mxGeometry width="50" height="30" as="geometry">
            <mxRectangle width="50" height="30" as="alternateBounds" />
          </mxGeometry>
        </mxCell>
        <mxCell id="jQRCav7DTQBNGYD-x8mf-74" value="8" style="shape=partialRectangle;html=1;whiteSpace=wrap;connectable=0;strokeColor=inherit;overflow=hidden;fillColor=none;top=0;left=0;bottom=0;right=0;pointerEvents=1;" parent="jQRCav7DTQBNGYD-x8mf-72" vertex="1">
          <mxGeometry x="50" width="50" height="30" as="geometry">
            <mxRectangle width="50" height="30" as="alternateBounds" />
          </mxGeometry>
        </mxCell>
        <mxCell id="jQRCav7DTQBNGYD-x8mf-75" value="" style="shape=partialRectangle;html=1;whiteSpace=wrap;connectable=0;strokeColor=inherit;overflow=hidden;fillColor=none;top=0;left=0;bottom=0;right=0;pointerEvents=1;" parent="jQRCav7DTQBNGYD-x8mf-72" vertex="1">
          <mxGeometry x="100" width="50" height="30" as="geometry">
            <mxRectangle width="50" height="30" as="alternateBounds" />
          </mxGeometry>
        </mxCell>
        <mxCell id="jQRCav7DTQBNGYD-x8mf-76" value="" style="shape=partialRectangle;html=1;whiteSpace=wrap;connectable=0;strokeColor=inherit;overflow=hidden;fillColor=none;top=0;left=0;bottom=0;right=0;pointerEvents=1;" parent="jQRCav7DTQBNGYD-x8mf-72" vertex="1">
          <mxGeometry x="150" width="50" height="30" as="geometry">
            <mxRectangle width="50" height="30" as="alternateBounds" />
          </mxGeometry>
        </mxCell>
        <mxCell id="jQRCav7DTQBNGYD-x8mf-77" value="" style="shape=table;startSize=0;container=1;collapsible=0;childLayout=tableLayout;" parent="1" vertex="1">
          <mxGeometry x="146.75" y="1934.5" width="200" height="90" as="geometry" />
        </mxCell>
        <mxCell id="jQRCav7DTQBNGYD-x8mf-78" value="" style="shape=tableRow;horizontal=0;startSize=0;swimlaneHead=0;swimlaneBody=0;strokeColor=inherit;top=0;left=0;bottom=0;right=0;collapsible=0;dropTarget=0;fillColor=none;points=[[0,0.5],[1,0.5]];portConstraint=eastwest;" parent="jQRCav7DTQBNGYD-x8mf-77" vertex="1">
          <mxGeometry width="200" height="30" as="geometry" />
        </mxCell>
        <mxCell id="jQRCav7DTQBNGYD-x8mf-79" value="1" style="shape=partialRectangle;html=1;whiteSpace=wrap;connectable=0;strokeColor=inherit;overflow=hidden;fillColor=none;top=0;left=0;bottom=0;right=0;pointerEvents=1;" parent="jQRCav7DTQBNGYD-x8mf-78" vertex="1">
          <mxGeometry width="50" height="30" as="geometry">
            <mxRectangle width="50" height="30" as="alternateBounds" />
          </mxGeometry>
        </mxCell>
        <mxCell id="jQRCav7DTQBNGYD-x8mf-80" value="2" style="shape=partialRectangle;html=1;whiteSpace=wrap;connectable=0;strokeColor=#36393d;overflow=hidden;fillColor=#eeeeee;top=0;left=0;bottom=0;right=0;pointerEvents=1;" parent="jQRCav7DTQBNGYD-x8mf-78" vertex="1">
          <mxGeometry x="50" width="50" height="30" as="geometry">
            <mxRectangle width="50" height="30" as="alternateBounds" />
          </mxGeometry>
        </mxCell>
        <mxCell id="jQRCav7DTQBNGYD-x8mf-81" value="2" style="shape=partialRectangle;html=1;whiteSpace=wrap;connectable=0;strokeColor=#36393d;overflow=hidden;fillColor=#eeeeee;top=0;left=0;bottom=0;right=0;pointerEvents=1;" parent="jQRCav7DTQBNGYD-x8mf-78" vertex="1">
          <mxGeometry x="100" width="50" height="30" as="geometry">
            <mxRectangle width="50" height="30" as="alternateBounds" />
          </mxGeometry>
        </mxCell>
        <mxCell id="jQRCav7DTQBNGYD-x8mf-82" value="3" style="shape=partialRectangle;html=1;whiteSpace=wrap;connectable=0;strokeColor=inherit;overflow=hidden;fillColor=none;top=0;left=0;bottom=0;right=0;pointerEvents=1;" parent="jQRCav7DTQBNGYD-x8mf-78" vertex="1">
          <mxGeometry x="150" width="50" height="30" as="geometry">
            <mxRectangle width="50" height="30" as="alternateBounds" />
          </mxGeometry>
        </mxCell>
        <mxCell id="jQRCav7DTQBNGYD-x8mf-83" value="" style="shape=tableRow;horizontal=0;startSize=0;swimlaneHead=0;swimlaneBody=0;strokeColor=inherit;top=0;left=0;bottom=0;right=0;collapsible=0;dropTarget=0;fillColor=none;points=[[0,0.5],[1,0.5]];portConstraint=eastwest;" parent="jQRCav7DTQBNGYD-x8mf-77" vertex="1">
          <mxGeometry y="30" width="200" height="30" as="geometry" />
        </mxCell>
        <mxCell id="jQRCav7DTQBNGYD-x8mf-84" value="1" style="shape=partialRectangle;html=1;whiteSpace=wrap;connectable=0;strokeColor=inherit;overflow=hidden;fillColor=none;top=0;left=0;bottom=0;right=0;pointerEvents=1;" parent="jQRCav7DTQBNGYD-x8mf-83" vertex="1">
          <mxGeometry width="50" height="30" as="geometry">
            <mxRectangle width="50" height="30" as="alternateBounds" />
          </mxGeometry>
        </mxCell>
        <mxCell id="jQRCav7DTQBNGYD-x8mf-85" value="2" style="shape=partialRectangle;html=1;whiteSpace=wrap;connectable=0;strokeColor=#666666;overflow=hidden;fillColor=#f5f5f5;top=0;left=0;bottom=0;right=0;pointerEvents=1;fontColor=#333333;" parent="jQRCav7DTQBNGYD-x8mf-83" vertex="1">
          <mxGeometry x="50" width="50" height="30" as="geometry">
            <mxRectangle width="50" height="30" as="alternateBounds" />
          </mxGeometry>
        </mxCell>
        <mxCell id="jQRCav7DTQBNGYD-x8mf-86" value="3" style="shape=partialRectangle;html=1;whiteSpace=wrap;connectable=0;strokeColor=#666666;overflow=hidden;fillColor=#f5f5f5;top=0;left=0;bottom=0;right=0;pointerEvents=1;fontColor=#333333;" parent="jQRCav7DTQBNGYD-x8mf-83" vertex="1">
          <mxGeometry x="100" width="50" height="30" as="geometry">
            <mxRectangle width="50" height="30" as="alternateBounds" />
          </mxGeometry>
        </mxCell>
        <mxCell id="jQRCav7DTQBNGYD-x8mf-87" value="1" style="shape=partialRectangle;html=1;whiteSpace=wrap;connectable=0;strokeColor=inherit;overflow=hidden;fillColor=none;top=0;left=0;bottom=0;right=0;pointerEvents=1;" parent="jQRCav7DTQBNGYD-x8mf-83" vertex="1">
          <mxGeometry x="150" width="50" height="30" as="geometry">
            <mxRectangle width="50" height="30" as="alternateBounds" />
          </mxGeometry>
        </mxCell>
        <mxCell id="jQRCav7DTQBNGYD-x8mf-88" value="" style="shape=tableRow;horizontal=0;startSize=0;swimlaneHead=0;swimlaneBody=0;strokeColor=inherit;top=0;left=0;bottom=0;right=0;collapsible=0;dropTarget=0;fillColor=none;points=[[0,0.5],[1,0.5]];portConstraint=eastwest;" parent="jQRCav7DTQBNGYD-x8mf-77" vertex="1">
          <mxGeometry y="60" width="200" height="30" as="geometry" />
        </mxCell>
        <mxCell id="jQRCav7DTQBNGYD-x8mf-89" value="1" style="shape=partialRectangle;html=1;whiteSpace=wrap;connectable=0;strokeColor=inherit;overflow=hidden;fillColor=none;top=0;left=0;bottom=0;right=0;pointerEvents=1;" parent="jQRCav7DTQBNGYD-x8mf-88" vertex="1">
          <mxGeometry width="50" height="30" as="geometry">
            <mxRectangle width="50" height="30" as="alternateBounds" />
          </mxGeometry>
        </mxCell>
        <mxCell id="jQRCav7DTQBNGYD-x8mf-90" value="2" style="shape=partialRectangle;html=1;whiteSpace=wrap;connectable=0;strokeColor=inherit;overflow=hidden;fillColor=none;top=0;left=0;bottom=0;right=0;pointerEvents=1;" parent="jQRCav7DTQBNGYD-x8mf-88" vertex="1">
          <mxGeometry x="50" width="50" height="30" as="geometry">
            <mxRectangle width="50" height="30" as="alternateBounds" />
          </mxGeometry>
        </mxCell>
        <mxCell id="jQRCav7DTQBNGYD-x8mf-91" value="5" style="shape=partialRectangle;html=1;whiteSpace=wrap;connectable=0;strokeColor=inherit;overflow=hidden;fillColor=none;top=0;left=0;bottom=0;right=0;pointerEvents=1;" parent="jQRCav7DTQBNGYD-x8mf-88" vertex="1">
          <mxGeometry x="100" width="50" height="30" as="geometry">
            <mxRectangle width="50" height="30" as="alternateBounds" />
          </mxGeometry>
        </mxCell>
        <mxCell id="jQRCav7DTQBNGYD-x8mf-92" value="1" style="shape=partialRectangle;html=1;whiteSpace=wrap;connectable=0;strokeColor=inherit;overflow=hidden;fillColor=none;top=0;left=0;bottom=0;right=0;pointerEvents=1;" parent="jQRCav7DTQBNGYD-x8mf-88" vertex="1">
          <mxGeometry x="150" width="50" height="30" as="geometry">
            <mxRectangle width="50" height="30" as="alternateBounds" />
          </mxGeometry>
        </mxCell>
        <mxCell id="jQRCav7DTQBNGYD-x8mf-93" value="" style="shape=table;startSize=0;container=1;collapsible=0;childLayout=tableLayout;" parent="1" vertex="1">
          <mxGeometry x="510" y="1934.5" width="200" height="90" as="geometry" />
        </mxCell>
        <mxCell id="jQRCav7DTQBNGYD-x8mf-94" value="" style="shape=tableRow;horizontal=0;startSize=0;swimlaneHead=0;swimlaneBody=0;strokeColor=inherit;top=0;left=0;bottom=0;right=0;collapsible=0;dropTarget=0;fillColor=none;points=[[0,0.5],[1,0.5]];portConstraint=eastwest;" parent="jQRCav7DTQBNGYD-x8mf-93" vertex="1">
          <mxGeometry width="200" height="30" as="geometry" />
        </mxCell>
        <mxCell id="jQRCav7DTQBNGYD-x8mf-95" value="3" style="shape=partialRectangle;html=1;whiteSpace=wrap;connectable=0;strokeColor=inherit;overflow=hidden;fillColor=none;top=0;left=0;bottom=0;right=0;pointerEvents=1;" parent="jQRCav7DTQBNGYD-x8mf-94" vertex="1">
          <mxGeometry width="50" height="30" as="geometry">
            <mxRectangle width="50" height="30" as="alternateBounds" />
          </mxGeometry>
        </mxCell>
        <mxCell id="jQRCav7DTQBNGYD-x8mf-96" value="4" style="shape=partialRectangle;html=1;whiteSpace=wrap;connectable=0;strokeColor=inherit;overflow=hidden;fillColor=none;top=0;left=0;bottom=0;right=0;pointerEvents=1;" parent="jQRCav7DTQBNGYD-x8mf-94" vertex="1">
          <mxGeometry x="50" width="50" height="30" as="geometry">
            <mxRectangle width="50" height="30" as="alternateBounds" />
          </mxGeometry>
        </mxCell>
        <mxCell id="jQRCav7DTQBNGYD-x8mf-97" value="6" style="shape=partialRectangle;html=1;whiteSpace=wrap;connectable=0;strokeColor=inherit;overflow=hidden;fillColor=none;top=0;left=0;bottom=0;right=0;pointerEvents=1;" parent="jQRCav7DTQBNGYD-x8mf-94" vertex="1">
          <mxGeometry x="100" width="50" height="30" as="geometry">
            <mxRectangle width="50" height="30" as="alternateBounds" />
          </mxGeometry>
        </mxCell>
        <mxCell id="jQRCav7DTQBNGYD-x8mf-98" value="8" style="shape=partialRectangle;html=1;whiteSpace=wrap;connectable=0;strokeColor=inherit;overflow=hidden;fillColor=none;top=0;left=0;bottom=0;right=0;pointerEvents=1;" parent="jQRCav7DTQBNGYD-x8mf-94" vertex="1">
          <mxGeometry x="150" width="50" height="30" as="geometry">
            <mxRectangle width="50" height="30" as="alternateBounds" />
          </mxGeometry>
        </mxCell>
        <mxCell id="jQRCav7DTQBNGYD-x8mf-99" value="" style="shape=tableRow;horizontal=0;startSize=0;swimlaneHead=0;swimlaneBody=0;strokeColor=inherit;top=0;left=0;bottom=0;right=0;collapsible=0;dropTarget=0;fillColor=none;points=[[0,0.5],[1,0.5]];portConstraint=eastwest;" parent="jQRCav7DTQBNGYD-x8mf-93" vertex="1">
          <mxGeometry y="30" width="200" height="30" as="geometry" />
        </mxCell>
        <mxCell id="jQRCav7DTQBNGYD-x8mf-100" value="2" style="shape=partialRectangle;html=1;whiteSpace=wrap;connectable=0;strokeColor=inherit;overflow=hidden;fillColor=none;top=0;left=0;bottom=0;right=0;pointerEvents=1;" parent="jQRCav7DTQBNGYD-x8mf-99" vertex="1">
          <mxGeometry width="50" height="30" as="geometry">
            <mxRectangle width="50" height="30" as="alternateBounds" />
          </mxGeometry>
        </mxCell>
        <mxCell id="jQRCav7DTQBNGYD-x8mf-101" value="5" style="shape=partialRectangle;html=1;whiteSpace=wrap;connectable=0;strokeColor=inherit;overflow=hidden;fillColor=none;top=0;left=0;bottom=0;right=0;pointerEvents=1;" parent="jQRCav7DTQBNGYD-x8mf-99" vertex="1">
          <mxGeometry x="50" width="50" height="30" as="geometry">
            <mxRectangle width="50" height="30" as="alternateBounds" />
          </mxGeometry>
        </mxCell>
        <mxCell id="jQRCav7DTQBNGYD-x8mf-102" value="4" style="shape=partialRectangle;html=1;whiteSpace=wrap;connectable=0;strokeColor=inherit;overflow=hidden;fillColor=none;top=0;left=0;bottom=0;right=0;pointerEvents=1;" parent="jQRCav7DTQBNGYD-x8mf-99" vertex="1">
          <mxGeometry x="100" width="50" height="30" as="geometry">
            <mxRectangle width="50" height="30" as="alternateBounds" />
          </mxGeometry>
        </mxCell>
        <mxCell id="jQRCav7DTQBNGYD-x8mf-103" value="8" style="shape=partialRectangle;html=1;whiteSpace=wrap;connectable=0;strokeColor=inherit;overflow=hidden;fillColor=none;top=0;left=0;bottom=0;right=0;pointerEvents=1;" parent="jQRCav7DTQBNGYD-x8mf-99" vertex="1">
          <mxGeometry x="150" width="50" height="30" as="geometry">
            <mxRectangle width="50" height="30" as="alternateBounds" />
          </mxGeometry>
        </mxCell>
        <mxCell id="jQRCav7DTQBNGYD-x8mf-104" value="" style="shape=tableRow;horizontal=0;startSize=0;swimlaneHead=0;swimlaneBody=0;strokeColor=inherit;top=0;left=0;bottom=0;right=0;collapsible=0;dropTarget=0;fillColor=none;points=[[0,0.5],[1,0.5]];portConstraint=eastwest;" parent="jQRCav7DTQBNGYD-x8mf-93" vertex="1">
          <mxGeometry y="60" width="200" height="30" as="geometry" />
        </mxCell>
        <mxCell id="jQRCav7DTQBNGYD-x8mf-105" value="2" style="shape=partialRectangle;html=1;whiteSpace=wrap;connectable=0;strokeColor=inherit;overflow=hidden;fillColor=none;top=0;left=0;bottom=0;right=0;pointerEvents=1;" parent="jQRCav7DTQBNGYD-x8mf-104" vertex="1">
          <mxGeometry width="50" height="30" as="geometry">
            <mxRectangle width="50" height="30" as="alternateBounds" />
          </mxGeometry>
        </mxCell>
        <mxCell id="jQRCav7DTQBNGYD-x8mf-106" value="5" style="shape=partialRectangle;html=1;whiteSpace=wrap;connectable=0;strokeColor=inherit;overflow=hidden;fillColor=none;top=0;left=0;bottom=0;right=0;pointerEvents=1;" parent="jQRCav7DTQBNGYD-x8mf-104" vertex="1">
          <mxGeometry x="50" width="50" height="30" as="geometry">
            <mxRectangle width="50" height="30" as="alternateBounds" />
          </mxGeometry>
        </mxCell>
        <mxCell id="jQRCav7DTQBNGYD-x8mf-107" value="4" style="shape=partialRectangle;html=1;whiteSpace=wrap;connectable=0;strokeColor=inherit;overflow=hidden;fillColor=none;top=0;left=0;bottom=0;right=0;pointerEvents=1;" parent="jQRCav7DTQBNGYD-x8mf-104" vertex="1">
          <mxGeometry x="100" width="50" height="30" as="geometry">
            <mxRectangle width="50" height="30" as="alternateBounds" />
          </mxGeometry>
        </mxCell>
        <mxCell id="jQRCav7DTQBNGYD-x8mf-108" value="8" style="shape=partialRectangle;html=1;whiteSpace=wrap;connectable=0;strokeColor=inherit;overflow=hidden;fillColor=none;top=0;left=0;bottom=0;right=0;pointerEvents=1;" parent="jQRCav7DTQBNGYD-x8mf-104" vertex="1">
          <mxGeometry x="150" width="50" height="30" as="geometry">
            <mxRectangle width="50" height="30" as="alternateBounds" />
          </mxGeometry>
        </mxCell>
        <mxCell id="jQRCav7DTQBNGYD-x8mf-109" value="表T：id，a，b，c，d&lt;br&gt;index_abc：（a，b，c）" style="text;html=1;align=center;verticalAlign=middle;resizable=0;points=[];autosize=1;strokeColor=none;fillColor=none;" parent="1" vertex="1">
          <mxGeometry x="360" y="1690" width="160" height="40" as="geometry" />
        </mxCell>
        <mxCell id="jQRCav7DTQBNGYD-x8mf-110" value="" style="shape=table;startSize=0;container=1;collapsible=0;childLayout=tableLayout;" parent="1" vertex="1">
          <mxGeometry x="144" y="2198" width="540" height="240" as="geometry" />
        </mxCell>
        <mxCell id="jQRCav7DTQBNGYD-x8mf-474" style="shape=tableRow;horizontal=0;startSize=0;swimlaneHead=0;swimlaneBody=0;strokeColor=#36393d;top=0;left=0;bottom=0;right=0;collapsible=0;dropTarget=0;fillColor=#eeeeee;points=[[0,0.5],[1,0.5]];portConstraint=eastwest;" parent="jQRCav7DTQBNGYD-x8mf-110" vertex="1">
          <mxGeometry width="540" height="40" as="geometry" />
        </mxCell>
        <mxCell id="jQRCav7DTQBNGYD-x8mf-475" value="pk index" style="shape=partialRectangle;html=1;whiteSpace=wrap;connectable=0;strokeColor=inherit;overflow=hidden;fillColor=none;top=0;left=0;bottom=0;right=0;pointerEvents=1;" parent="jQRCav7DTQBNGYD-x8mf-474" vertex="1">
          <mxGeometry width="60" height="40" as="geometry">
            <mxRectangle width="60" height="40" as="alternateBounds" />
          </mxGeometry>
        </mxCell>
        <mxCell id="jQRCav7DTQBNGYD-x8mf-476" value="4" style="shape=partialRectangle;html=1;whiteSpace=wrap;connectable=0;strokeColor=inherit;overflow=hidden;fillColor=none;top=0;left=0;bottom=0;right=0;pointerEvents=1;" parent="jQRCav7DTQBNGYD-x8mf-474" vertex="1">
          <mxGeometry x="60" width="60" height="40" as="geometry">
            <mxRectangle width="60" height="40" as="alternateBounds" />
          </mxGeometry>
        </mxCell>
        <mxCell id="jQRCav7DTQBNGYD-x8mf-477" value="1" style="shape=partialRectangle;html=1;whiteSpace=wrap;connectable=0;strokeColor=inherit;overflow=hidden;fillColor=none;top=0;left=0;bottom=0;right=0;pointerEvents=1;" parent="jQRCav7DTQBNGYD-x8mf-474" vertex="1">
          <mxGeometry x="120" width="60" height="40" as="geometry">
            <mxRectangle width="60" height="40" as="alternateBounds" />
          </mxGeometry>
        </mxCell>
        <mxCell id="jQRCav7DTQBNGYD-x8mf-478" value="8" style="shape=partialRectangle;html=1;whiteSpace=wrap;connectable=0;strokeColor=inherit;overflow=hidden;fillColor=none;top=0;left=0;bottom=0;right=0;pointerEvents=1;" parent="jQRCav7DTQBNGYD-x8mf-474" vertex="1">
          <mxGeometry x="180" width="60" height="40" as="geometry">
            <mxRectangle width="60" height="40" as="alternateBounds" />
          </mxGeometry>
        </mxCell>
        <mxCell id="jQRCav7DTQBNGYD-x8mf-479" value="2" style="shape=partialRectangle;html=1;whiteSpace=wrap;connectable=0;strokeColor=inherit;overflow=hidden;fillColor=none;top=0;left=0;bottom=0;right=0;pointerEvents=1;" parent="jQRCav7DTQBNGYD-x8mf-474" vertex="1">
          <mxGeometry x="240" width="60" height="40" as="geometry">
            <mxRectangle width="60" height="40" as="alternateBounds" />
          </mxGeometry>
        </mxCell>
        <mxCell id="jQRCav7DTQBNGYD-x8mf-480" value="5" style="shape=partialRectangle;html=1;whiteSpace=wrap;connectable=0;strokeColor=inherit;overflow=hidden;fillColor=none;top=0;left=0;bottom=0;right=0;pointerEvents=1;" parent="jQRCav7DTQBNGYD-x8mf-474" vertex="1">
          <mxGeometry x="300" width="60" height="40" as="geometry">
            <mxRectangle width="60" height="40" as="alternateBounds" />
          </mxGeometry>
        </mxCell>
        <mxCell id="jQRCav7DTQBNGYD-x8mf-481" value="3" style="shape=partialRectangle;html=1;whiteSpace=wrap;connectable=0;strokeColor=inherit;overflow=hidden;fillColor=none;top=0;left=0;bottom=0;right=0;pointerEvents=1;" parent="jQRCav7DTQBNGYD-x8mf-474" vertex="1">
          <mxGeometry x="360" width="60" height="40" as="geometry">
            <mxRectangle width="60" height="40" as="alternateBounds" />
          </mxGeometry>
        </mxCell>
        <mxCell id="jQRCav7DTQBNGYD-x8mf-482" value="7" style="shape=partialRectangle;html=1;whiteSpace=wrap;connectable=0;strokeColor=inherit;overflow=hidden;fillColor=none;top=0;left=0;bottom=0;right=0;pointerEvents=1;" parent="jQRCav7DTQBNGYD-x8mf-474" vertex="1">
          <mxGeometry x="420" width="60" height="40" as="geometry">
            <mxRectangle width="60" height="40" as="alternateBounds" />
          </mxGeometry>
        </mxCell>
        <mxCell id="jQRCav7DTQBNGYD-x8mf-483" value="6" style="shape=partialRectangle;html=1;whiteSpace=wrap;connectable=0;strokeColor=inherit;overflow=hidden;fillColor=none;top=0;left=0;bottom=0;right=0;pointerEvents=1;" parent="jQRCav7DTQBNGYD-x8mf-474" vertex="1">
          <mxGeometry x="480" width="60" height="40" as="geometry">
            <mxRectangle width="60" height="40" as="alternateBounds" />
          </mxGeometry>
        </mxCell>
        <mxCell id="jQRCav7DTQBNGYD-x8mf-111" value="" style="shape=tableRow;horizontal=0;startSize=0;swimlaneHead=0;swimlaneBody=0;strokeColor=inherit;top=0;left=0;bottom=0;right=0;collapsible=0;dropTarget=0;fillColor=none;points=[[0,0.5],[1,0.5]];portConstraint=eastwest;" parent="jQRCav7DTQBNGYD-x8mf-110" vertex="1">
          <mxGeometry y="40" width="540" height="40" as="geometry" />
        </mxCell>
        <mxCell id="jQRCav7DTQBNGYD-x8mf-444" value="id" style="shape=partialRectangle;html=1;whiteSpace=wrap;connectable=0;strokeColor=inherit;overflow=hidden;fillColor=none;top=0;left=0;bottom=0;right=0;pointerEvents=1;" parent="jQRCav7DTQBNGYD-x8mf-111" vertex="1">
          <mxGeometry width="60" height="40" as="geometry">
            <mxRectangle width="60" height="40" as="alternateBounds" />
          </mxGeometry>
        </mxCell>
        <mxCell id="jQRCav7DTQBNGYD-x8mf-112" value="4" style="shape=partialRectangle;html=1;whiteSpace=wrap;connectable=0;strokeColor=inherit;overflow=hidden;fillColor=none;top=0;left=0;bottom=0;right=0;pointerEvents=1;" parent="jQRCav7DTQBNGYD-x8mf-111" vertex="1">
          <mxGeometry x="60" width="60" height="40" as="geometry">
            <mxRectangle width="60" height="40" as="alternateBounds" />
          </mxGeometry>
        </mxCell>
        <mxCell id="jQRCav7DTQBNGYD-x8mf-113" value="1" style="shape=partialRectangle;html=1;whiteSpace=wrap;connectable=0;strokeColor=inherit;overflow=hidden;fillColor=none;top=0;left=0;bottom=0;right=0;pointerEvents=1;" parent="jQRCav7DTQBNGYD-x8mf-111" vertex="1">
          <mxGeometry x="120" width="60" height="40" as="geometry">
            <mxRectangle width="60" height="40" as="alternateBounds" />
          </mxGeometry>
        </mxCell>
        <mxCell id="jQRCav7DTQBNGYD-x8mf-114" value="8" style="shape=partialRectangle;html=1;whiteSpace=wrap;connectable=0;strokeColor=inherit;overflow=hidden;fillColor=none;top=0;left=0;bottom=0;right=0;pointerEvents=1;" parent="jQRCav7DTQBNGYD-x8mf-111" vertex="1">
          <mxGeometry x="180" width="60" height="40" as="geometry">
            <mxRectangle width="60" height="40" as="alternateBounds" />
          </mxGeometry>
        </mxCell>
        <mxCell id="jQRCav7DTQBNGYD-x8mf-115" value="2" style="shape=partialRectangle;html=1;whiteSpace=wrap;connectable=0;strokeColor=inherit;overflow=hidden;fillColor=none;top=0;left=0;bottom=0;right=0;pointerEvents=1;" parent="jQRCav7DTQBNGYD-x8mf-111" vertex="1">
          <mxGeometry x="240" width="60" height="40" as="geometry">
            <mxRectangle width="60" height="40" as="alternateBounds" />
          </mxGeometry>
        </mxCell>
        <mxCell id="jQRCav7DTQBNGYD-x8mf-116" value="5" style="shape=partialRectangle;html=1;whiteSpace=wrap;connectable=0;strokeColor=inherit;overflow=hidden;fillColor=none;top=0;left=0;bottom=0;right=0;pointerEvents=1;" parent="jQRCav7DTQBNGYD-x8mf-111" vertex="1">
          <mxGeometry x="300" width="60" height="40" as="geometry">
            <mxRectangle width="60" height="40" as="alternateBounds" />
          </mxGeometry>
        </mxCell>
        <mxCell id="jQRCav7DTQBNGYD-x8mf-117" value="3" style="shape=partialRectangle;html=1;whiteSpace=wrap;connectable=0;strokeColor=inherit;overflow=hidden;fillColor=none;top=0;left=0;bottom=0;right=0;pointerEvents=1;" parent="jQRCav7DTQBNGYD-x8mf-111" vertex="1">
          <mxGeometry x="360" width="60" height="40" as="geometry">
            <mxRectangle width="60" height="40" as="alternateBounds" />
          </mxGeometry>
        </mxCell>
        <mxCell id="jQRCav7DTQBNGYD-x8mf-118" value="7" style="shape=partialRectangle;html=1;whiteSpace=wrap;connectable=0;strokeColor=inherit;overflow=hidden;fillColor=none;top=0;left=0;bottom=0;right=0;pointerEvents=1;" parent="jQRCav7DTQBNGYD-x8mf-111" vertex="1">
          <mxGeometry x="420" width="60" height="40" as="geometry">
            <mxRectangle width="60" height="40" as="alternateBounds" />
          </mxGeometry>
        </mxCell>
        <mxCell id="jQRCav7DTQBNGYD-x8mf-119" value="6" style="shape=partialRectangle;html=1;whiteSpace=wrap;connectable=0;strokeColor=inherit;overflow=hidden;fillColor=none;top=0;left=0;bottom=0;right=0;pointerEvents=1;" parent="jQRCav7DTQBNGYD-x8mf-111" vertex="1">
          <mxGeometry x="480" width="60" height="40" as="geometry">
            <mxRectangle width="60" height="40" as="alternateBounds" />
          </mxGeometry>
        </mxCell>
        <mxCell id="jQRCav7DTQBNGYD-x8mf-120" value="" style="shape=tableRow;horizontal=0;startSize=0;swimlaneHead=0;swimlaneBody=0;strokeColor=inherit;top=0;left=0;bottom=0;right=0;collapsible=0;dropTarget=0;fillColor=none;points=[[0,0.5],[1,0.5]];portConstraint=eastwest;" parent="jQRCav7DTQBNGYD-x8mf-110" vertex="1">
          <mxGeometry y="80" width="540" height="40" as="geometry" />
        </mxCell>
        <mxCell id="jQRCav7DTQBNGYD-x8mf-445" value="a" style="shape=partialRectangle;html=1;whiteSpace=wrap;connectable=0;strokeColor=inherit;overflow=hidden;fillColor=none;top=0;left=0;bottom=0;right=0;pointerEvents=1;" parent="jQRCav7DTQBNGYD-x8mf-120" vertex="1">
          <mxGeometry width="60" height="40" as="geometry">
            <mxRectangle width="60" height="40" as="alternateBounds" />
          </mxGeometry>
        </mxCell>
        <mxCell id="jQRCav7DTQBNGYD-x8mf-121" value="3" style="shape=partialRectangle;html=1;whiteSpace=wrap;connectable=0;strokeColor=inherit;overflow=hidden;fillColor=none;top=0;left=0;bottom=0;right=0;pointerEvents=1;" parent="jQRCav7DTQBNGYD-x8mf-120" vertex="1">
          <mxGeometry x="60" width="60" height="40" as="geometry">
            <mxRectangle width="60" height="40" as="alternateBounds" />
          </mxGeometry>
        </mxCell>
        <mxCell id="jQRCav7DTQBNGYD-x8mf-122" value="1" style="shape=partialRectangle;html=1;whiteSpace=wrap;connectable=0;strokeColor=inherit;overflow=hidden;fillColor=none;top=0;left=0;bottom=0;right=0;pointerEvents=1;" parent="jQRCav7DTQBNGYD-x8mf-120" vertex="1">
          <mxGeometry x="120" width="60" height="40" as="geometry">
            <mxRectangle width="60" height="40" as="alternateBounds" />
          </mxGeometry>
        </mxCell>
        <mxCell id="jQRCav7DTQBNGYD-x8mf-123" value="8" style="shape=partialRectangle;html=1;whiteSpace=wrap;connectable=0;strokeColor=inherit;overflow=hidden;fillColor=none;top=0;left=0;bottom=0;right=0;pointerEvents=1;" parent="jQRCav7DTQBNGYD-x8mf-120" vertex="1">
          <mxGeometry x="180" width="60" height="40" as="geometry">
            <mxRectangle width="60" height="40" as="alternateBounds" />
          </mxGeometry>
        </mxCell>
        <mxCell id="jQRCav7DTQBNGYD-x8mf-124" value="2" style="shape=partialRectangle;html=1;whiteSpace=wrap;connectable=0;strokeColor=inherit;overflow=hidden;fillColor=none;top=0;left=0;bottom=0;right=0;pointerEvents=1;" parent="jQRCav7DTQBNGYD-x8mf-120" vertex="1">
          <mxGeometry x="240" width="60" height="40" as="geometry">
            <mxRectangle width="60" height="40" as="alternateBounds" />
          </mxGeometry>
        </mxCell>
        <mxCell id="jQRCav7DTQBNGYD-x8mf-125" value="2" style="shape=partialRectangle;html=1;whiteSpace=wrap;connectable=0;strokeColor=inherit;overflow=hidden;fillColor=none;top=0;left=0;bottom=0;right=0;pointerEvents=1;" parent="jQRCav7DTQBNGYD-x8mf-120" vertex="1">
          <mxGeometry x="300" width="60" height="40" as="geometry">
            <mxRectangle width="60" height="40" as="alternateBounds" />
          </mxGeometry>
        </mxCell>
        <mxCell id="jQRCav7DTQBNGYD-x8mf-126" value="3" style="shape=partialRectangle;html=1;whiteSpace=wrap;connectable=0;strokeColor=inherit;overflow=hidden;fillColor=none;top=0;left=0;bottom=0;right=0;pointerEvents=1;" parent="jQRCav7DTQBNGYD-x8mf-120" vertex="1">
          <mxGeometry x="360" width="60" height="40" as="geometry">
            <mxRectangle width="60" height="40" as="alternateBounds" />
          </mxGeometry>
        </mxCell>
        <mxCell id="jQRCav7DTQBNGYD-x8mf-127" value="4" style="shape=partialRectangle;html=1;whiteSpace=wrap;connectable=0;strokeColor=inherit;overflow=hidden;fillColor=none;top=0;left=0;bottom=0;right=0;pointerEvents=1;" parent="jQRCav7DTQBNGYD-x8mf-120" vertex="1">
          <mxGeometry x="420" width="60" height="40" as="geometry">
            <mxRectangle width="60" height="40" as="alternateBounds" />
          </mxGeometry>
        </mxCell>
        <mxCell id="jQRCav7DTQBNGYD-x8mf-128" value="6" style="shape=partialRectangle;html=1;whiteSpace=wrap;connectable=0;strokeColor=inherit;overflow=hidden;fillColor=none;top=0;left=0;bottom=0;right=0;pointerEvents=1;" parent="jQRCav7DTQBNGYD-x8mf-120" vertex="1">
          <mxGeometry x="480" width="60" height="40" as="geometry">
            <mxRectangle width="60" height="40" as="alternateBounds" />
          </mxGeometry>
        </mxCell>
        <mxCell id="jQRCav7DTQBNGYD-x8mf-129" value="" style="shape=tableRow;horizontal=0;startSize=0;swimlaneHead=0;swimlaneBody=0;strokeColor=inherit;top=0;left=0;bottom=0;right=0;collapsible=0;dropTarget=0;fillColor=none;points=[[0,0.5],[1,0.5]];portConstraint=eastwest;" parent="jQRCav7DTQBNGYD-x8mf-110" vertex="1">
          <mxGeometry y="120" width="540" height="40" as="geometry" />
        </mxCell>
        <mxCell id="jQRCav7DTQBNGYD-x8mf-446" value="b" style="shape=partialRectangle;html=1;whiteSpace=wrap;connectable=0;strokeColor=inherit;overflow=hidden;fillColor=none;top=0;left=0;bottom=0;right=0;pointerEvents=1;" parent="jQRCav7DTQBNGYD-x8mf-129" vertex="1">
          <mxGeometry width="60" height="40" as="geometry">
            <mxRectangle width="60" height="40" as="alternateBounds" />
          </mxGeometry>
        </mxCell>
        <mxCell id="jQRCav7DTQBNGYD-x8mf-130" value="4" style="shape=partialRectangle;html=1;whiteSpace=wrap;connectable=0;strokeColor=inherit;overflow=hidden;fillColor=none;top=0;left=0;bottom=0;right=0;pointerEvents=1;" parent="jQRCav7DTQBNGYD-x8mf-129" vertex="1">
          <mxGeometry x="60" width="60" height="40" as="geometry">
            <mxRectangle width="60" height="40" as="alternateBounds" />
          </mxGeometry>
        </mxCell>
        <mxCell id="jQRCav7DTQBNGYD-x8mf-131" value="1" style="shape=partialRectangle;html=1;whiteSpace=wrap;connectable=0;strokeColor=inherit;overflow=hidden;fillColor=none;top=0;left=0;bottom=0;right=0;pointerEvents=1;" parent="jQRCav7DTQBNGYD-x8mf-129" vertex="1">
          <mxGeometry x="120" width="60" height="40" as="geometry">
            <mxRectangle width="60" height="40" as="alternateBounds" />
          </mxGeometry>
        </mxCell>
        <mxCell id="jQRCav7DTQBNGYD-x8mf-132" value="8" style="shape=partialRectangle;html=1;whiteSpace=wrap;connectable=0;strokeColor=inherit;overflow=hidden;fillColor=none;top=0;left=0;bottom=0;right=0;pointerEvents=1;" parent="jQRCav7DTQBNGYD-x8mf-129" vertex="1">
          <mxGeometry x="180" width="60" height="40" as="geometry">
            <mxRectangle width="60" height="40" as="alternateBounds" />
          </mxGeometry>
        </mxCell>
        <mxCell id="jQRCav7DTQBNGYD-x8mf-133" value="2" style="shape=partialRectangle;html=1;whiteSpace=wrap;connectable=0;strokeColor=inherit;overflow=hidden;fillColor=none;top=0;left=0;bottom=0;right=0;pointerEvents=1;" parent="jQRCav7DTQBNGYD-x8mf-129" vertex="1">
          <mxGeometry x="240" width="60" height="40" as="geometry">
            <mxRectangle width="60" height="40" as="alternateBounds" />
          </mxGeometry>
        </mxCell>
        <mxCell id="jQRCav7DTQBNGYD-x8mf-134" value="3" style="shape=partialRectangle;html=1;whiteSpace=wrap;connectable=0;strokeColor=inherit;overflow=hidden;fillColor=none;top=0;left=0;bottom=0;right=0;pointerEvents=1;" parent="jQRCav7DTQBNGYD-x8mf-129" vertex="1">
          <mxGeometry x="300" width="60" height="40" as="geometry">
            <mxRectangle width="60" height="40" as="alternateBounds" />
          </mxGeometry>
        </mxCell>
        <mxCell id="jQRCav7DTQBNGYD-x8mf-135" value="2" style="shape=partialRectangle;html=1;whiteSpace=wrap;connectable=0;strokeColor=inherit;overflow=hidden;fillColor=none;top=0;left=0;bottom=0;right=0;pointerEvents=1;" parent="jQRCav7DTQBNGYD-x8mf-129" vertex="1">
          <mxGeometry x="360" width="60" height="40" as="geometry">
            <mxRectangle width="60" height="40" as="alternateBounds" />
          </mxGeometry>
        </mxCell>
        <mxCell id="jQRCav7DTQBNGYD-x8mf-136" value="5" style="shape=partialRectangle;html=1;whiteSpace=wrap;connectable=0;strokeColor=inherit;overflow=hidden;fillColor=none;top=0;left=0;bottom=0;right=0;pointerEvents=1;" parent="jQRCav7DTQBNGYD-x8mf-129" vertex="1">
          <mxGeometry x="420" width="60" height="40" as="geometry">
            <mxRectangle width="60" height="40" as="alternateBounds" />
          </mxGeometry>
        </mxCell>
        <mxCell id="jQRCav7DTQBNGYD-x8mf-137" value="4" style="shape=partialRectangle;html=1;whiteSpace=wrap;connectable=0;strokeColor=inherit;overflow=hidden;fillColor=none;top=0;left=0;bottom=0;right=0;pointerEvents=1;" parent="jQRCav7DTQBNGYD-x8mf-129" vertex="1">
          <mxGeometry x="480" width="60" height="40" as="geometry">
            <mxRectangle width="60" height="40" as="alternateBounds" />
          </mxGeometry>
        </mxCell>
        <mxCell id="jQRCav7DTQBNGYD-x8mf-138" value="" style="shape=tableRow;horizontal=0;startSize=0;swimlaneHead=0;swimlaneBody=0;strokeColor=inherit;top=0;left=0;bottom=0;right=0;collapsible=0;dropTarget=0;fillColor=none;points=[[0,0.5],[1,0.5]];portConstraint=eastwest;" parent="jQRCav7DTQBNGYD-x8mf-110" vertex="1">
          <mxGeometry y="160" width="540" height="40" as="geometry" />
        </mxCell>
        <mxCell id="jQRCav7DTQBNGYD-x8mf-447" value="c" style="shape=partialRectangle;html=1;whiteSpace=wrap;connectable=0;strokeColor=inherit;overflow=hidden;fillColor=none;top=0;left=0;bottom=0;right=0;pointerEvents=1;" parent="jQRCav7DTQBNGYD-x8mf-138" vertex="1">
          <mxGeometry width="60" height="40" as="geometry">
            <mxRectangle width="60" height="40" as="alternateBounds" />
          </mxGeometry>
        </mxCell>
        <mxCell id="jQRCav7DTQBNGYD-x8mf-139" value="1" style="shape=partialRectangle;html=1;whiteSpace=wrap;connectable=0;strokeColor=inherit;overflow=hidden;fillColor=none;top=0;left=0;bottom=0;right=0;pointerEvents=1;" parent="jQRCav7DTQBNGYD-x8mf-138" vertex="1">
          <mxGeometry x="60" width="60" height="40" as="geometry">
            <mxRectangle width="60" height="40" as="alternateBounds" />
          </mxGeometry>
        </mxCell>
        <mxCell id="jQRCav7DTQBNGYD-x8mf-140" value="1" style="shape=partialRectangle;html=1;whiteSpace=wrap;connectable=0;strokeColor=inherit;overflow=hidden;fillColor=none;top=0;left=0;bottom=0;right=0;pointerEvents=1;" parent="jQRCav7DTQBNGYD-x8mf-138" vertex="1">
          <mxGeometry x="120" width="60" height="40" as="geometry">
            <mxRectangle width="60" height="40" as="alternateBounds" />
          </mxGeometry>
        </mxCell>
        <mxCell id="jQRCav7DTQBNGYD-x8mf-141" value="8" style="shape=partialRectangle;html=1;whiteSpace=wrap;connectable=0;strokeColor=inherit;overflow=hidden;fillColor=none;top=0;left=0;bottom=0;right=0;pointerEvents=1;" parent="jQRCav7DTQBNGYD-x8mf-138" vertex="1">
          <mxGeometry x="180" width="60" height="40" as="geometry">
            <mxRectangle width="60" height="40" as="alternateBounds" />
          </mxGeometry>
        </mxCell>
        <mxCell id="jQRCav7DTQBNGYD-x8mf-142" value="2" style="shape=partialRectangle;html=1;whiteSpace=wrap;connectable=0;strokeColor=inherit;overflow=hidden;fillColor=none;top=0;left=0;bottom=0;right=0;pointerEvents=1;" parent="jQRCav7DTQBNGYD-x8mf-138" vertex="1">
          <mxGeometry x="240" width="60" height="40" as="geometry">
            <mxRectangle width="60" height="40" as="alternateBounds" />
          </mxGeometry>
        </mxCell>
        <mxCell id="jQRCav7DTQBNGYD-x8mf-143" value="5" style="shape=partialRectangle;html=1;whiteSpace=wrap;connectable=0;strokeColor=inherit;overflow=hidden;fillColor=none;top=0;left=0;bottom=0;right=0;pointerEvents=1;" parent="jQRCav7DTQBNGYD-x8mf-138" vertex="1">
          <mxGeometry x="300" width="60" height="40" as="geometry">
            <mxRectangle width="60" height="40" as="alternateBounds" />
          </mxGeometry>
        </mxCell>
        <mxCell id="jQRCav7DTQBNGYD-x8mf-144" value="2" style="shape=partialRectangle;html=1;whiteSpace=wrap;connectable=0;strokeColor=inherit;overflow=hidden;fillColor=none;top=0;left=0;bottom=0;right=0;pointerEvents=1;" parent="jQRCav7DTQBNGYD-x8mf-138" vertex="1">
          <mxGeometry x="360" width="60" height="40" as="geometry">
            <mxRectangle width="60" height="40" as="alternateBounds" />
          </mxGeometry>
        </mxCell>
        <mxCell id="jQRCav7DTQBNGYD-x8mf-145" value="5" style="shape=partialRectangle;html=1;whiteSpace=wrap;connectable=0;strokeColor=inherit;overflow=hidden;fillColor=none;top=0;left=0;bottom=0;right=0;pointerEvents=1;" parent="jQRCav7DTQBNGYD-x8mf-138" vertex="1">
          <mxGeometry x="420" width="60" height="40" as="geometry">
            <mxRectangle width="60" height="40" as="alternateBounds" />
          </mxGeometry>
        </mxCell>
        <mxCell id="jQRCav7DTQBNGYD-x8mf-146" value="4" style="shape=partialRectangle;html=1;whiteSpace=wrap;connectable=0;strokeColor=inherit;overflow=hidden;fillColor=none;top=0;left=0;bottom=0;right=0;pointerEvents=1;" parent="jQRCav7DTQBNGYD-x8mf-138" vertex="1">
          <mxGeometry x="480" width="60" height="40" as="geometry">
            <mxRectangle width="60" height="40" as="alternateBounds" />
          </mxGeometry>
        </mxCell>
        <mxCell id="jQRCav7DTQBNGYD-x8mf-147" value="" style="shape=tableRow;horizontal=0;startSize=0;swimlaneHead=0;swimlaneBody=0;strokeColor=inherit;top=0;left=0;bottom=0;right=0;collapsible=0;dropTarget=0;fillColor=none;points=[[0,0.5],[1,0.5]];portConstraint=eastwest;" parent="jQRCav7DTQBNGYD-x8mf-110" vertex="1">
          <mxGeometry y="200" width="540" height="40" as="geometry" />
        </mxCell>
        <mxCell id="jQRCav7DTQBNGYD-x8mf-448" value="d" style="shape=partialRectangle;html=1;whiteSpace=wrap;connectable=0;strokeColor=inherit;overflow=hidden;fillColor=none;top=0;left=0;bottom=0;right=0;pointerEvents=1;" parent="jQRCav7DTQBNGYD-x8mf-147" vertex="1">
          <mxGeometry width="60" height="40" as="geometry">
            <mxRectangle width="60" height="40" as="alternateBounds" />
          </mxGeometry>
        </mxCell>
        <mxCell id="jQRCav7DTQBNGYD-x8mf-148" value="d" style="shape=partialRectangle;html=1;whiteSpace=wrap;connectable=0;strokeColor=inherit;overflow=hidden;fillColor=none;top=0;left=0;bottom=0;right=0;pointerEvents=1;" parent="jQRCav7DTQBNGYD-x8mf-147" vertex="1">
          <mxGeometry x="60" width="60" height="40" as="geometry">
            <mxRectangle width="60" height="40" as="alternateBounds" />
          </mxGeometry>
        </mxCell>
        <mxCell id="jQRCav7DTQBNGYD-x8mf-149" value="a" style="shape=partialRectangle;html=1;whiteSpace=wrap;connectable=0;strokeColor=inherit;overflow=hidden;fillColor=none;top=0;left=0;bottom=0;right=0;pointerEvents=1;" parent="jQRCav7DTQBNGYD-x8mf-147" vertex="1">
          <mxGeometry x="120" width="60" height="40" as="geometry">
            <mxRectangle width="60" height="40" as="alternateBounds" />
          </mxGeometry>
        </mxCell>
        <mxCell id="jQRCav7DTQBNGYD-x8mf-150" value="h" style="shape=partialRectangle;html=1;whiteSpace=wrap;connectable=0;strokeColor=inherit;overflow=hidden;fillColor=none;top=0;left=0;bottom=0;right=0;pointerEvents=1;" parent="jQRCav7DTQBNGYD-x8mf-147" vertex="1">
          <mxGeometry x="180" width="60" height="40" as="geometry">
            <mxRectangle width="60" height="40" as="alternateBounds" />
          </mxGeometry>
        </mxCell>
        <mxCell id="jQRCav7DTQBNGYD-x8mf-151" value="b" style="shape=partialRectangle;html=1;whiteSpace=wrap;connectable=0;strokeColor=inherit;overflow=hidden;fillColor=none;top=0;left=0;bottom=0;right=0;pointerEvents=1;" parent="jQRCav7DTQBNGYD-x8mf-147" vertex="1">
          <mxGeometry x="240" width="60" height="40" as="geometry">
            <mxRectangle width="60" height="40" as="alternateBounds" />
          </mxGeometry>
        </mxCell>
        <mxCell id="jQRCav7DTQBNGYD-x8mf-152" value="e" style="shape=partialRectangle;html=1;whiteSpace=wrap;connectable=0;strokeColor=inherit;overflow=hidden;fillColor=none;top=0;left=0;bottom=0;right=0;pointerEvents=1;" parent="jQRCav7DTQBNGYD-x8mf-147" vertex="1">
          <mxGeometry x="300" width="60" height="40" as="geometry">
            <mxRectangle width="60" height="40" as="alternateBounds" />
          </mxGeometry>
        </mxCell>
        <mxCell id="jQRCav7DTQBNGYD-x8mf-153" value="c" style="shape=partialRectangle;html=1;whiteSpace=wrap;connectable=0;strokeColor=inherit;overflow=hidden;fillColor=none;top=0;left=0;bottom=0;right=0;pointerEvents=1;" parent="jQRCav7DTQBNGYD-x8mf-147" vertex="1">
          <mxGeometry x="360" width="60" height="40" as="geometry">
            <mxRectangle width="60" height="40" as="alternateBounds" />
          </mxGeometry>
        </mxCell>
        <mxCell id="jQRCav7DTQBNGYD-x8mf-154" value="g" style="shape=partialRectangle;html=1;whiteSpace=wrap;connectable=0;strokeColor=inherit;overflow=hidden;fillColor=none;top=0;left=0;bottom=0;right=0;pointerEvents=1;" parent="jQRCav7DTQBNGYD-x8mf-147" vertex="1">
          <mxGeometry x="420" width="60" height="40" as="geometry">
            <mxRectangle width="60" height="40" as="alternateBounds" />
          </mxGeometry>
        </mxCell>
        <mxCell id="jQRCav7DTQBNGYD-x8mf-155" value="f" style="shape=partialRectangle;html=1;whiteSpace=wrap;connectable=0;strokeColor=inherit;overflow=hidden;fillColor=none;top=0;left=0;bottom=0;right=0;pointerEvents=1;" parent="jQRCav7DTQBNGYD-x8mf-147" vertex="1">
          <mxGeometry x="480" width="60" height="40" as="geometry">
            <mxRectangle width="60" height="40" as="alternateBounds" />
          </mxGeometry>
        </mxCell>
        <mxCell id="jQRCav7DTQBNGYD-x8mf-156" value="" style="endArrow=classic;html=1;rounded=0;exitX=0.123;exitY=1.065;exitDx=0;exitDy=0;exitPerimeter=0;" parent="1" source="jQRCav7DTQBNGYD-x8mf-72" edge="1">
          <mxGeometry width="50" height="50" relative="1" as="geometry">
            <mxPoint x="90" y="1930" as="sourcePoint" />
            <mxPoint x="250" y="1930" as="targetPoint" />
          </mxGeometry>
        </mxCell>
        <mxCell id="jQRCav7DTQBNGYD-x8mf-157" value="" style="endArrow=classic;html=1;rounded=0;exitX=0.387;exitY=1.012;exitDx=0;exitDy=0;exitPerimeter=0;" parent="1" source="jQRCav7DTQBNGYD-x8mf-72" edge="1">
          <mxGeometry width="50" height="50" relative="1" as="geometry">
            <mxPoint x="430" y="2040" as="sourcePoint" />
            <mxPoint x="610" y="1930" as="targetPoint" />
          </mxGeometry>
        </mxCell>
        <mxCell id="jQRCav7DTQBNGYD-x8mf-158" style="edgeStyle=orthogonalEdgeStyle;rounded=0;orthogonalLoop=1;jettySize=auto;html=1;exitX=1;exitY=0.5;exitDx=0;exitDy=0;entryX=0;entryY=0.5;entryDx=0;entryDy=0;" parent="1" source="jQRCav7DTQBNGYD-x8mf-78" target="jQRCav7DTQBNGYD-x8mf-94" edge="1">
          <mxGeometry relative="1" as="geometry" />
        </mxCell>
        <mxCell id="jQRCav7DTQBNGYD-x8mf-159" style="edgeStyle=orthogonalEdgeStyle;rounded=0;orthogonalLoop=1;jettySize=auto;html=1;exitX=0;exitY=0.5;exitDx=0;exitDy=0;entryX=1;entryY=0.5;entryDx=0;entryDy=0;" parent="1" source="jQRCav7DTQBNGYD-x8mf-104" target="jQRCav7DTQBNGYD-x8mf-88" edge="1">
          <mxGeometry relative="1" as="geometry" />
        </mxCell>
        <mxCell id="jQRCav7DTQBNGYD-x8mf-160" value="" style="endArrow=classic;html=1;rounded=0;entryX=0.275;entryY=-0.03;entryDx=0;entryDy=0;entryPerimeter=0;exitX=0.5;exitY=1;exitDx=0;exitDy=0;" parent="1" source="jQRCav7DTQBNGYD-x8mf-255" target="jQRCav7DTQBNGYD-x8mf-474" edge="1">
          <mxGeometry width="50" height="50" relative="1" as="geometry">
            <mxPoint x="40" y="2000" as="sourcePoint" />
            <mxPoint x="291.4200000000001" y="2199.8" as="targetPoint" />
          </mxGeometry>
        </mxCell>
        <mxCell id="jQRCav7DTQBNGYD-x8mf-172" value="" style="endArrow=classic;html=1;rounded=0;exitX=0.5;exitY=1;exitDx=0;exitDy=0;entryX=0.503;entryY=0.07;entryDx=0;entryDy=0;entryPerimeter=0;" parent="1" source="jQRCav7DTQBNGYD-x8mf-256" target="jQRCav7DTQBNGYD-x8mf-474" edge="1">
          <mxGeometry width="50" height="50" relative="1" as="geometry">
            <mxPoint x="60" y="2170" as="sourcePoint" />
            <mxPoint x="406.98" y="2197.4" as="targetPoint" />
          </mxGeometry>
        </mxCell>
        <mxCell id="jQRCav7DTQBNGYD-x8mf-173" value="" style="endArrow=classic;html=1;rounded=0;exitX=0.5;exitY=1;exitDx=0;exitDy=0;entryX=0.61;entryY=0.03;entryDx=0;entryDy=0;entryPerimeter=0;" parent="1" source="jQRCav7DTQBNGYD-x8mf-257" target="jQRCav7DTQBNGYD-x8mf-474" edge="1">
          <mxGeometry width="50" height="50" relative="1" as="geometry">
            <mxPoint x="110" y="2160" as="sourcePoint" />
            <mxPoint x="472.8600000000001" y="2196.6" as="targetPoint" />
          </mxGeometry>
        </mxCell>
        <mxCell id="jQRCav7DTQBNGYD-x8mf-174" value="" style="endArrow=classic;html=1;rounded=0;exitX=0.5;exitY=1;exitDx=0;exitDy=0;entryX=0.166;entryY=-0.01;entryDx=0;entryDy=0;entryPerimeter=0;" parent="1" source="jQRCav7DTQBNGYD-x8mf-258" target="jQRCav7DTQBNGYD-x8mf-474" edge="1">
          <mxGeometry width="50" height="50" relative="1" as="geometry">
            <mxPoint x="80" y="2170" as="sourcePoint" />
            <mxPoint x="230" y="2190" as="targetPoint" />
            <Array as="points" />
          </mxGeometry>
        </mxCell>
        <mxCell id="jQRCav7DTQBNGYD-x8mf-175" value="" style="endArrow=classic;html=1;rounded=0;entryX=0.721;entryY=0.05;entryDx=0;entryDy=0;entryPerimeter=0;exitX=0.5;exitY=1;exitDx=0;exitDy=0;" parent="1" source="jQRCav7DTQBNGYD-x8mf-260" target="jQRCav7DTQBNGYD-x8mf-474" edge="1">
          <mxGeometry width="50" height="50" relative="1" as="geometry">
            <mxPoint x="630" y="2150" as="sourcePoint" />
            <mxPoint x="534.4200000000001" y="2197.48" as="targetPoint" />
          </mxGeometry>
        </mxCell>
        <mxCell id="jQRCav7DTQBNGYD-x8mf-176" value="" style="endArrow=classic;html=1;rounded=0;entryX=0.829;entryY=0.05;entryDx=0;entryDy=0;entryPerimeter=0;exitX=0.5;exitY=1;exitDx=0;exitDy=0;" parent="1" source="jQRCav7DTQBNGYD-x8mf-263" target="jQRCav7DTQBNGYD-x8mf-474" edge="1">
          <mxGeometry width="50" height="50" relative="1" as="geometry">
            <mxPoint x="580" y="2100" as="sourcePoint" />
            <mxPoint x="592.1999999999998" y="2197.48" as="targetPoint" />
          </mxGeometry>
        </mxCell>
        <mxCell id="jQRCav7DTQBNGYD-x8mf-177" value="" style="endArrow=classic;html=1;rounded=0;entryX=0.943;entryY=-0.01;entryDx=0;entryDy=0;entryPerimeter=0;exitX=0.5;exitY=1;exitDx=0;exitDy=0;" parent="1" source="jQRCav7DTQBNGYD-x8mf-266" target="jQRCav7DTQBNGYD-x8mf-474" edge="1">
          <mxGeometry width="50" height="50" relative="1" as="geometry">
            <mxPoint x="630" y="2110" as="sourcePoint" />
            <mxPoint x="652.1399999999999" y="2197.4" as="targetPoint" />
            <Array as="points" />
          </mxGeometry>
        </mxCell>
        <mxCell id="jQRCav7DTQBNGYD-x8mf-178" value="" style="endArrow=classic;html=1;rounded=0;entryX=0.391;entryY=0.07;entryDx=0;entryDy=0;entryPerimeter=0;exitX=0.5;exitY=1;exitDx=0;exitDy=0;" parent="1" source="jQRCav7DTQBNGYD-x8mf-268" target="jQRCav7DTQBNGYD-x8mf-474" edge="1">
          <mxGeometry width="50" height="50" relative="1" as="geometry">
            <mxPoint x="690" y="2100" as="sourcePoint" />
            <mxPoint x="349.7399999999998" y="2197.4" as="targetPoint" />
          </mxGeometry>
        </mxCell>
        <mxCell id="jQRCav7DTQBNGYD-x8mf-223" value="server" style="text;html=1;align=center;verticalAlign=middle;resizable=0;points=[];autosize=1;strokeColor=none;fillColor=none;" parent="1" vertex="1">
          <mxGeometry x="-701.4200000000001" y="1760.5" width="60" height="30" as="geometry" />
        </mxCell>
        <mxCell id="jQRCav7DTQBNGYD-x8mf-224" value="optimizer：cost(行数、索引等)" style="rounded=1;whiteSpace=wrap;html=1;" parent="1" vertex="1">
          <mxGeometry x="-533.27" y="1770.5" width="306.53" height="60" as="geometry" />
        </mxCell>
        <mxCell id="jQRCav7DTQBNGYD-x8mf-225" value="page" style="text;html=1;align=center;verticalAlign=middle;resizable=0;points=[];autosize=1;strokeColor=#666666;fillColor=#f5f5f5;fontColor=#333333;" parent="1" vertex="1">
          <mxGeometry x="146.75" y="1904.5" width="50" height="30" as="geometry" />
        </mxCell>
        <mxCell id="jQRCav7DTQBNGYD-x8mf-226" value="page" style="text;html=1;align=center;verticalAlign=middle;resizable=0;points=[];autosize=1;strokeColor=#666666;fillColor=#f5f5f5;fontColor=#333333;" parent="1" vertex="1">
          <mxGeometry x="510" y="1904.5" width="50" height="30" as="geometry" />
        </mxCell>
        <mxCell id="jQRCav7DTQBNGYD-x8mf-227" value="page" style="text;html=1;align=center;verticalAlign=middle;resizable=0;points=[];autosize=1;strokeColor=#666666;fillColor=#f5f5f5;fontColor=#333333;" parent="1" vertex="1">
          <mxGeometry x="340" y="1739" width="50" height="30" as="geometry" />
        </mxCell>
        <mxCell id="jQRCav7DTQBNGYD-x8mf-228" value="" style="endArrow=classic;startArrow=classic;html=1;rounded=0;exitX=0.5;exitY=0;exitDx=0;exitDy=0;" parent="1" source="gXKH7BePIXmSOS_r9Qfp-2" edge="1">
          <mxGeometry width="50" height="50" relative="1" as="geometry">
            <mxPoint x="-470" y="2560" as="sourcePoint" />
            <mxPoint x="-360" y="2320" as="targetPoint" />
          </mxGeometry>
        </mxCell>
        <mxCell id="jQRCav7DTQBNGYD-x8mf-229" value="擦掉redolog之前刷脏页" style="text;html=1;align=center;verticalAlign=middle;resizable=0;points=[];autosize=1;strokeColor=none;fillColor=none;" parent="1" vertex="1">
          <mxGeometry x="-360" y="2340" width="150" height="30" as="geometry" />
        </mxCell>
        <mxCell id="jQRCav7DTQBNGYD-x8mf-236" value="" style="shape=table;startSize=0;container=1;collapsible=0;childLayout=tableLayout;" parent="1" vertex="1">
          <mxGeometry x="-368.75" y="2810" width="280" height="60" as="geometry" />
        </mxCell>
        <mxCell id="jQRCav7DTQBNGYD-x8mf-237" value="" style="shape=tableRow;horizontal=0;startSize=0;swimlaneHead=0;swimlaneBody=0;strokeColor=inherit;top=0;left=0;bottom=0;right=0;collapsible=0;dropTarget=0;fillColor=none;points=[[0,0.5],[1,0.5]];portConstraint=eastwest;" parent="jQRCav7DTQBNGYD-x8mf-236" vertex="1">
          <mxGeometry width="280" height="60" as="geometry" />
        </mxCell>
        <mxCell id="jQRCav7DTQBNGYD-x8mf-238" value="KV链表" style="shape=partialRectangle;html=1;whiteSpace=wrap;connectable=0;strokeColor=inherit;overflow=hidden;fillColor=none;top=0;left=0;bottom=0;right=0;pointerEvents=1;" parent="jQRCav7DTQBNGYD-x8mf-237" vertex="1">
          <mxGeometry width="70" height="60" as="geometry">
            <mxRectangle width="70" height="60" as="alternateBounds" />
          </mxGeometry>
        </mxCell>
        <mxCell id="jQRCav7DTQBNGYD-x8mf-239" value="" style="shape=partialRectangle;html=1;whiteSpace=wrap;connectable=0;strokeColor=inherit;overflow=hidden;fillColor=none;top=0;left=0;bottom=0;right=0;pointerEvents=1;" parent="jQRCav7DTQBNGYD-x8mf-237" vertex="1">
          <mxGeometry x="70" width="70" height="60" as="geometry">
            <mxRectangle width="70" height="60" as="alternateBounds" />
          </mxGeometry>
        </mxCell>
        <mxCell id="jQRCav7DTQBNGYD-x8mf-240" value="" style="shape=partialRectangle;html=1;whiteSpace=wrap;connectable=0;strokeColor=inherit;overflow=hidden;fillColor=none;top=0;left=0;bottom=0;right=0;pointerEvents=1;" parent="jQRCav7DTQBNGYD-x8mf-237" vertex="1">
          <mxGeometry x="140" width="70" height="60" as="geometry">
            <mxRectangle width="70" height="60" as="alternateBounds" />
          </mxGeometry>
        </mxCell>
        <mxCell id="jQRCav7DTQBNGYD-x8mf-241" value="" style="shape=partialRectangle;html=1;whiteSpace=wrap;connectable=0;strokeColor=inherit;overflow=hidden;fillColor=none;top=0;left=0;bottom=0;right=0;pointerEvents=1;" parent="jQRCav7DTQBNGYD-x8mf-237" vertex="1">
          <mxGeometry x="210" width="70" height="60" as="geometry">
            <mxRectangle width="70" height="60" as="alternateBounds" />
          </mxGeometry>
        </mxCell>
        <mxCell id="jQRCav7DTQBNGYD-x8mf-245" value="" style="shape=table;startSize=0;container=1;collapsible=0;childLayout=tableLayout;" parent="1" vertex="1">
          <mxGeometry x="-705.62" y="2810" width="280" height="60" as="geometry" />
        </mxCell>
        <mxCell id="jQRCav7DTQBNGYD-x8mf-246" value="" style="shape=tableRow;horizontal=0;startSize=0;swimlaneHead=0;swimlaneBody=0;strokeColor=inherit;top=0;left=0;bottom=0;right=0;collapsible=0;dropTarget=0;fillColor=none;points=[[0,0.5],[1,0.5]];portConstraint=eastwest;" parent="jQRCav7DTQBNGYD-x8mf-245" vertex="1">
          <mxGeometry width="280" height="60" as="geometry" />
        </mxCell>
        <mxCell id="jQRCav7DTQBNGYD-x8mf-247" value="KV链表" style="shape=partialRectangle;html=1;whiteSpace=wrap;connectable=0;strokeColor=inherit;overflow=hidden;fillColor=none;top=0;left=0;bottom=0;right=0;pointerEvents=1;" parent="jQRCav7DTQBNGYD-x8mf-246" vertex="1">
          <mxGeometry width="70" height="60" as="geometry">
            <mxRectangle width="70" height="60" as="alternateBounds" />
          </mxGeometry>
        </mxCell>
        <mxCell id="jQRCav7DTQBNGYD-x8mf-248" value="" style="shape=partialRectangle;html=1;whiteSpace=wrap;connectable=0;strokeColor=inherit;overflow=hidden;fillColor=none;top=0;left=0;bottom=0;right=0;pointerEvents=1;" parent="jQRCav7DTQBNGYD-x8mf-246" vertex="1">
          <mxGeometry x="70" width="70" height="60" as="geometry">
            <mxRectangle width="70" height="60" as="alternateBounds" />
          </mxGeometry>
        </mxCell>
        <mxCell id="jQRCav7DTQBNGYD-x8mf-249" value="" style="shape=partialRectangle;html=1;whiteSpace=wrap;connectable=0;strokeColor=inherit;overflow=hidden;fillColor=none;top=0;left=0;bottom=0;right=0;pointerEvents=1;" parent="jQRCav7DTQBNGYD-x8mf-246" vertex="1">
          <mxGeometry x="140" width="70" height="60" as="geometry">
            <mxRectangle width="70" height="60" as="alternateBounds" />
          </mxGeometry>
        </mxCell>
        <mxCell id="jQRCav7DTQBNGYD-x8mf-250" value="" style="shape=partialRectangle;html=1;whiteSpace=wrap;connectable=0;strokeColor=inherit;overflow=hidden;fillColor=none;top=0;left=0;bottom=0;right=0;pointerEvents=1;" parent="jQRCav7DTQBNGYD-x8mf-246" vertex="1">
          <mxGeometry x="210" width="70" height="60" as="geometry">
            <mxRectangle width="70" height="60" as="alternateBounds" />
          </mxGeometry>
        </mxCell>
        <mxCell id="jQRCav7DTQBNGYD-x8mf-251" style="edgeStyle=orthogonalEdgeStyle;rounded=0;orthogonalLoop=1;jettySize=auto;html=1;exitX=1;exitY=0.5;exitDx=0;exitDy=0;entryX=0;entryY=0.5;entryDx=0;entryDy=0;" parent="1" source="jQRCav7DTQBNGYD-x8mf-246" target="jQRCav7DTQBNGYD-x8mf-237" edge="1">
          <mxGeometry relative="1" as="geometry" />
        </mxCell>
        <mxCell id="jQRCav7DTQBNGYD-x8mf-252" style="edgeStyle=orthogonalEdgeStyle;rounded=0;orthogonalLoop=1;jettySize=auto;html=1;exitX=0;exitY=0.5;exitDx=0;exitDy=0;entryX=1;entryY=0.5;entryDx=0;entryDy=0;" parent="1" source="jQRCav7DTQBNGYD-x8mf-237" target="jQRCav7DTQBNGYD-x8mf-246" edge="1">
          <mxGeometry relative="1" as="geometry" />
        </mxCell>
        <mxCell id="jQRCav7DTQBNGYD-x8mf-254" value="回表" style="text;html=1;align=center;verticalAlign=middle;resizable=0;points=[];autosize=1;strokeColor=none;fillColor=none;" parent="1" vertex="1">
          <mxGeometry x="99" y="2140" width="50" height="30" as="geometry" />
        </mxCell>
        <mxCell id="jQRCav7DTQBNGYD-x8mf-255" value="pki" style="ellipse;whiteSpace=wrap;html=1;aspect=fixed;" parent="1" vertex="1">
          <mxGeometry x="151.25" y="2024.5" width="35.5" height="35.5" as="geometry" />
        </mxCell>
        <mxCell id="jQRCav7DTQBNGYD-x8mf-256" value="pki" style="ellipse;whiteSpace=wrap;html=1;aspect=fixed;" parent="1" vertex="1">
          <mxGeometry x="201.75" y="2024.5" width="35.5" height="35.5" as="geometry" />
        </mxCell>
        <mxCell id="jQRCav7DTQBNGYD-x8mf-257" value="pki" style="ellipse;whiteSpace=wrap;html=1;aspect=fixed;" parent="1" vertex="1">
          <mxGeometry x="255.75" y="2024.5" width="35.5" height="35.5" as="geometry" />
        </mxCell>
        <mxCell id="jQRCav7DTQBNGYD-x8mf-258" value="pki" style="ellipse;whiteSpace=wrap;html=1;aspect=fixed;" parent="1" vertex="1">
          <mxGeometry x="304.5" y="2024.5" width="35.5" height="35.5" as="geometry" />
        </mxCell>
        <mxCell id="jQRCav7DTQBNGYD-x8mf-260" value="pki" style="ellipse;whiteSpace=wrap;html=1;aspect=fixed;" parent="1" vertex="1">
          <mxGeometry x="517.25" y="2024.5" width="35.5" height="35.5" as="geometry" />
        </mxCell>
        <mxCell id="jQRCav7DTQBNGYD-x8mf-263" value="pki" style="ellipse;whiteSpace=wrap;html=1;aspect=fixed;" parent="1" vertex="1">
          <mxGeometry x="570" y="2024.5" width="35.5" height="35.5" as="geometry" />
        </mxCell>
        <mxCell id="jQRCav7DTQBNGYD-x8mf-266" value="pki" style="ellipse;whiteSpace=wrap;html=1;aspect=fixed;" parent="1" vertex="1">
          <mxGeometry x="620" y="2024.5" width="35.5" height="35.5" as="geometry" />
        </mxCell>
        <mxCell id="jQRCav7DTQBNGYD-x8mf-268" value="pki" style="ellipse;whiteSpace=wrap;html=1;aspect=fixed;" parent="1" vertex="1">
          <mxGeometry x="670" y="2024.5" width="35.5" height="35.5" as="geometry" />
        </mxCell>
        <mxCell id="jQRCav7DTQBNGYD-x8mf-269" style="edgeStyle=orthogonalEdgeStyle;rounded=0;orthogonalLoop=1;jettySize=auto;html=1;exitX=0.5;exitY=1;exitDx=0;exitDy=0;entryX=0.5;entryY=0;entryDx=0;entryDy=0;" parent="1" source="jQRCav7DTQBNGYD-x8mf-272" target="jQRCav7DTQBNGYD-x8mf-276" edge="1">
          <mxGeometry relative="1" as="geometry" />
        </mxCell>
        <mxCell id="jQRCav7DTQBNGYD-x8mf-270" style="edgeStyle=orthogonalEdgeStyle;rounded=0;orthogonalLoop=1;jettySize=auto;html=1;exitX=0.5;exitY=1;exitDx=0;exitDy=0;entryX=0.5;entryY=0;entryDx=0;entryDy=0;" parent="1" source="jQRCav7DTQBNGYD-x8mf-272" target="jQRCav7DTQBNGYD-x8mf-273" edge="1">
          <mxGeometry relative="1" as="geometry" />
        </mxCell>
        <mxCell id="jQRCav7DTQBNGYD-x8mf-271" style="edgeStyle=orthogonalEdgeStyle;rounded=0;orthogonalLoop=1;jettySize=auto;html=1;exitX=0.5;exitY=1;exitDx=0;exitDy=0;entryX=0.5;entryY=0;entryDx=0;entryDy=0;" parent="1" source="jQRCav7DTQBNGYD-x8mf-272" target="jQRCav7DTQBNGYD-x8mf-277" edge="1">
          <mxGeometry relative="1" as="geometry" />
        </mxCell>
        <mxCell id="jQRCav7DTQBNGYD-x8mf-272" value="" style="rounded=0;whiteSpace=wrap;html=1;" parent="1" vertex="1">
          <mxGeometry x="1600" y="1795" width="390" height="170" as="geometry" />
        </mxCell>
        <mxCell id="jQRCav7DTQBNGYD-x8mf-273" value="从" style="rounded=0;whiteSpace=wrap;html=1;" parent="1" vertex="1">
          <mxGeometry x="1590" y="2040" width="69" height="40" as="geometry" />
        </mxCell>
        <mxCell id="jQRCav7DTQBNGYD-x8mf-274" style="edgeStyle=orthogonalEdgeStyle;rounded=0;orthogonalLoop=1;jettySize=auto;html=1;exitX=0.5;exitY=1;exitDx=0;exitDy=0;entryX=0.5;entryY=0;entryDx=0;entryDy=0;" parent="1" source="jQRCav7DTQBNGYD-x8mf-276" target="jQRCav7DTQBNGYD-x8mf-278" edge="1">
          <mxGeometry relative="1" as="geometry" />
        </mxCell>
        <mxCell id="jQRCav7DTQBNGYD-x8mf-275" style="edgeStyle=orthogonalEdgeStyle;rounded=0;orthogonalLoop=1;jettySize=auto;html=1;exitX=0.5;exitY=1;exitDx=0;exitDy=0;entryX=0.5;entryY=0;entryDx=0;entryDy=0;" parent="1" source="jQRCav7DTQBNGYD-x8mf-276" target="jQRCav7DTQBNGYD-x8mf-279" edge="1">
          <mxGeometry relative="1" as="geometry" />
        </mxCell>
        <mxCell id="jQRCav7DTQBNGYD-x8mf-276" value="从" style="rounded=0;whiteSpace=wrap;html=1;" parent="1" vertex="1">
          <mxGeometry x="1760" y="2040" width="69" height="40" as="geometry" />
        </mxCell>
        <mxCell id="jQRCav7DTQBNGYD-x8mf-277" value="从" style="rounded=0;whiteSpace=wrap;html=1;" parent="1" vertex="1">
          <mxGeometry x="1910" y="2040" width="69" height="40" as="geometry" />
        </mxCell>
        <mxCell id="jQRCav7DTQBNGYD-x8mf-278" value="从" style="rounded=0;whiteSpace=wrap;html=1;" parent="1" vertex="1">
          <mxGeometry x="1674.5" y="2130" width="69" height="40" as="geometry" />
        </mxCell>
        <mxCell id="jQRCav7DTQBNGYD-x8mf-279" value="从" style="rounded=0;whiteSpace=wrap;html=1;" parent="1" vertex="1">
          <mxGeometry x="1845.5" y="2130" width="69" height="40" as="geometry" />
        </mxCell>
        <mxCell id="jQRCav7DTQBNGYD-x8mf-280" value="主" style="ellipse;whiteSpace=wrap;html=1;aspect=fixed;" parent="1" vertex="1">
          <mxGeometry x="1724.5" y="1815" width="70" height="70" as="geometry" />
        </mxCell>
        <mxCell id="jQRCav7DTQBNGYD-x8mf-281" value="主" style="ellipse;whiteSpace=wrap;html=1;aspect=fixed;" parent="1" vertex="1">
          <mxGeometry x="1794.5" y="1815" width="70" height="70" as="geometry" />
        </mxCell>
        <mxCell id="jQRCav7DTQBNGYD-x8mf-282" value="主" style="rounded=0;whiteSpace=wrap;html=1;" parent="1" vertex="1">
          <mxGeometry x="1760.5" y="1904.5" width="69" height="40" as="geometry" />
        </mxCell>
        <mxCell id="jQRCav7DTQBNGYD-x8mf-284" value="clients" style="text;html=1;align=center;verticalAlign=middle;resizable=0;points=[];autosize=1;strokeColor=none;fillColor=none;" parent="1" vertex="1">
          <mxGeometry x="1450" y="1970" width="60" height="30" as="geometry" />
        </mxCell>
        <mxCell id="jQRCav7DTQBNGYD-x8mf-286" value="" style="shape=curlyBracket;whiteSpace=wrap;html=1;rounded=1;labelPosition=left;verticalLabelPosition=middle;align=right;verticalAlign=middle;" parent="1" vertex="1">
          <mxGeometry x="1520" y="1800" width="20" height="370" as="geometry" />
        </mxCell>
        <mxCell id="jQRCav7DTQBNGYD-x8mf-287" value="" style="shape=curlyBracket;whiteSpace=wrap;html=1;rounded=1;labelPosition=left;verticalLabelPosition=middle;align=right;verticalAlign=middle;" parent="1" vertex="1">
          <mxGeometry x="173.62" y="2600" width="20" height="400" as="geometry" />
        </mxCell>
        <mxCell id="jQRCav7DTQBNGYD-x8mf-288" value="clients" style="text;html=1;align=center;verticalAlign=middle;resizable=0;points=[];autosize=1;strokeColor=none;fillColor=none;" parent="1" vertex="1">
          <mxGeometry x="111.25" y="2785" width="60" height="30" as="geometry" />
        </mxCell>
        <mxCell id="jQRCav7DTQBNGYD-x8mf-289" value="columns index" style="text;html=1;align=center;verticalAlign=middle;resizable=0;points=[];autosize=1;strokeColor=none;fillColor=none;" parent="1" vertex="1">
          <mxGeometry x="46.75" y="1964.5" width="100" height="30" as="geometry" />
        </mxCell>
        <mxCell id="jQRCav7DTQBNGYD-x8mf-290" value="pk index" style="text;html=1;align=center;verticalAlign=middle;resizable=0;points=[];autosize=1;strokeColor=none;fillColor=none;" parent="1" vertex="1">
          <mxGeometry x="76.75" y="2024.5" width="70" height="30" as="geometry" />
        </mxCell>
        <mxCell id="jQRCav7DTQBNGYD-x8mf-485" value="" style="shape=table;startSize=0;container=1;collapsible=0;childLayout=tableLayout;" parent="1" vertex="1">
          <mxGeometry x="844" y="2330" width="480" height="40" as="geometry" />
        </mxCell>
        <mxCell id="jQRCav7DTQBNGYD-x8mf-486" value="" style="shape=tableRow;horizontal=0;startSize=0;swimlaneHead=0;swimlaneBody=0;strokeColor=inherit;top=0;left=0;bottom=0;right=0;collapsible=0;dropTarget=0;fillColor=none;points=[[0,0.5],[1,0.5]];portConstraint=eastwest;" parent="jQRCav7DTQBNGYD-x8mf-485" vertex="1">
          <mxGeometry width="480" height="40" as="geometry" />
        </mxCell>
        <mxCell id="jQRCav7DTQBNGYD-x8mf-495" value="index" style="shape=partialRectangle;html=1;whiteSpace=wrap;connectable=0;strokeColor=inherit;overflow=hidden;fillColor=none;top=0;left=0;bottom=0;right=0;pointerEvents=1;" parent="jQRCav7DTQBNGYD-x8mf-486" vertex="1">
          <mxGeometry width="60" height="40" as="geometry">
            <mxRectangle width="60" height="40" as="alternateBounds" />
          </mxGeometry>
        </mxCell>
        <mxCell id="jQRCav7DTQBNGYD-x8mf-487" value="0" style="shape=partialRectangle;html=1;whiteSpace=wrap;connectable=0;strokeColor=inherit;overflow=hidden;fillColor=none;top=0;left=0;bottom=0;right=0;pointerEvents=1;" parent="jQRCav7DTQBNGYD-x8mf-486" vertex="1">
          <mxGeometry x="60" width="60" height="40" as="geometry">
            <mxRectangle width="60" height="40" as="alternateBounds" />
          </mxGeometry>
        </mxCell>
        <mxCell id="jQRCav7DTQBNGYD-x8mf-488" value="5" style="shape=partialRectangle;html=1;whiteSpace=wrap;connectable=0;strokeColor=inherit;overflow=hidden;fillColor=none;top=0;left=0;bottom=0;right=0;pointerEvents=1;" parent="jQRCav7DTQBNGYD-x8mf-486" vertex="1">
          <mxGeometry x="120" width="60" height="40" as="geometry">
            <mxRectangle width="60" height="40" as="alternateBounds" />
          </mxGeometry>
        </mxCell>
        <mxCell id="jQRCav7DTQBNGYD-x8mf-489" value="10" style="shape=partialRectangle;html=1;whiteSpace=wrap;connectable=0;strokeColor=inherit;overflow=hidden;fillColor=none;top=0;left=0;bottom=0;right=0;pointerEvents=1;" parent="jQRCav7DTQBNGYD-x8mf-486" vertex="1">
          <mxGeometry x="180" width="60" height="40" as="geometry">
            <mxRectangle width="60" height="40" as="alternateBounds" />
          </mxGeometry>
        </mxCell>
        <mxCell id="jQRCav7DTQBNGYD-x8mf-490" value="15" style="shape=partialRectangle;html=1;whiteSpace=wrap;connectable=0;strokeColor=inherit;overflow=hidden;fillColor=none;top=0;left=0;bottom=0;right=0;pointerEvents=1;" parent="jQRCav7DTQBNGYD-x8mf-486" vertex="1">
          <mxGeometry x="240" width="60" height="40" as="geometry">
            <mxRectangle width="60" height="40" as="alternateBounds" />
          </mxGeometry>
        </mxCell>
        <mxCell id="jQRCav7DTQBNGYD-x8mf-491" value="20" style="shape=partialRectangle;html=1;whiteSpace=wrap;connectable=0;strokeColor=inherit;overflow=hidden;fillColor=none;top=0;left=0;bottom=0;right=0;pointerEvents=1;" parent="jQRCav7DTQBNGYD-x8mf-486" vertex="1">
          <mxGeometry x="300" width="60" height="40" as="geometry">
            <mxRectangle width="60" height="40" as="alternateBounds" />
          </mxGeometry>
        </mxCell>
        <mxCell id="jQRCav7DTQBNGYD-x8mf-492" value="25" style="shape=partialRectangle;html=1;whiteSpace=wrap;connectable=0;strokeColor=inherit;overflow=hidden;fillColor=none;top=0;left=0;bottom=0;right=0;pointerEvents=1;" parent="jQRCav7DTQBNGYD-x8mf-486" vertex="1">
          <mxGeometry x="360" width="60" height="40" as="geometry">
            <mxRectangle width="60" height="40" as="alternateBounds" />
          </mxGeometry>
        </mxCell>
        <mxCell id="jQRCav7DTQBNGYD-x8mf-493" value="30" style="shape=partialRectangle;html=1;whiteSpace=wrap;connectable=0;strokeColor=inherit;overflow=hidden;fillColor=none;top=0;left=0;bottom=0;right=0;pointerEvents=1;" parent="jQRCav7DTQBNGYD-x8mf-486" vertex="1">
          <mxGeometry x="420" width="60" height="40" as="geometry">
            <mxRectangle width="60" height="40" as="alternateBounds" />
          </mxGeometry>
        </mxCell>
        <mxCell id="jQRCav7DTQBNGYD-x8mf-496" value="" style="endArrow=classic;html=1;rounded=0;exitX=0.5;exitY=1;exitDx=0;exitDy=0;entryX=0.311;entryY=-0.08;entryDx=0;entryDy=0;entryPerimeter=0;" parent="1" source="cuOZ3U2S4svU4EkSFh8x-11" target="jQRCav7DTQBNGYD-x8mf-486" edge="1">
          <mxGeometry width="50" height="50" relative="1" as="geometry">
            <mxPoint x="1004" y="2522" as="sourcePoint" />
            <mxPoint x="1054" y="2472" as="targetPoint" />
          </mxGeometry>
        </mxCell>
        <mxCell id="jQRCav7DTQBNGYD-x8mf-497" value="" style="endArrow=classic;html=1;rounded=0;exitX=0.5;exitY=1;exitDx=0;exitDy=0;entryX=0.625;entryY=0.06;entryDx=0;entryDy=0;entryPerimeter=0;" parent="1" source="cuOZ3U2S4svU4EkSFh8x-11" target="jQRCav7DTQBNGYD-x8mf-486" edge="1">
          <mxGeometry width="50" height="50" relative="1" as="geometry">
            <mxPoint x="1064" y="2502" as="sourcePoint" />
            <mxPoint x="1114" y="2452" as="targetPoint" />
          </mxGeometry>
        </mxCell>
        <mxCell id="1-QfFzFVaWJn7AieKZZL-1" value="Base Image" style="rounded=0;whiteSpace=wrap;html=1;" parent="1" vertex="1">
          <mxGeometry x="-455" y="1440" width="120" height="40" as="geometry" />
        </mxCell>
        <mxCell id="1-QfFzFVaWJn7AieKZZL-2" value="Image Layer1" style="rounded=0;whiteSpace=wrap;html=1;" parent="1" vertex="1">
          <mxGeometry x="-455" y="1400" width="120" height="40" as="geometry" />
        </mxCell>
        <mxCell id="1-QfFzFVaWJn7AieKZZL-3" value="Image&amp;nbsp;Layer2" style="rounded=0;whiteSpace=wrap;html=1;" parent="1" vertex="1">
          <mxGeometry x="-455" y="1360" width="120" height="40" as="geometry" />
        </mxCell>
        <mxCell id="1-QfFzFVaWJn7AieKZZL-4" value="哨兵1" style="ellipse;whiteSpace=wrap;html=1;aspect=fixed;" parent="1" vertex="1">
          <mxGeometry x="133.62000000000006" y="3490" width="80" height="80" as="geometry" />
        </mxCell>
        <mxCell id="1-QfFzFVaWJn7AieKZZL-5" value="哨兵3" style="ellipse;whiteSpace=wrap;html=1;aspect=fixed;" parent="1" vertex="1">
          <mxGeometry x="173.62000000000003" y="3560" width="80" height="80" as="geometry" />
        </mxCell>
        <mxCell id="1-QfFzFVaWJn7AieKZZL-6" value="哨兵2" style="ellipse;whiteSpace=wrap;html=1;aspect=fixed;" parent="1" vertex="1">
          <mxGeometry x="93.62000000000006" y="3560" width="80" height="80" as="geometry" />
        </mxCell>
        <mxCell id="1-QfFzFVaWJn7AieKZZL-11" value="从" style="rounded=0;whiteSpace=wrap;html=1;" parent="1" vertex="1">
          <mxGeometry x="-391.4199999999999" y="3750" width="69" height="40" as="geometry" />
        </mxCell>
        <mxCell id="1-QfFzFVaWJn7AieKZZL-12" style="edgeStyle=orthogonalEdgeStyle;rounded=0;orthogonalLoop=1;jettySize=auto;html=1;exitX=0.5;exitY=1;exitDx=0;exitDy=0;entryX=0.5;entryY=0;entryDx=0;entryDy=0;" parent="1" source="1-QfFzFVaWJn7AieKZZL-14" target="1-QfFzFVaWJn7AieKZZL-16" edge="1">
          <mxGeometry relative="1" as="geometry" />
        </mxCell>
        <mxCell id="1-QfFzFVaWJn7AieKZZL-14" value="从" style="rounded=0;whiteSpace=wrap;html=1;" parent="1" vertex="1">
          <mxGeometry x="-221.41999999999996" y="3750" width="69" height="40" as="geometry" />
        </mxCell>
        <mxCell id="1-QfFzFVaWJn7AieKZZL-16" value="从" style="rounded=0;whiteSpace=wrap;html=1;" parent="1" vertex="1">
          <mxGeometry x="-306.9199999999999" y="3840" width="69" height="40" as="geometry" />
        </mxCell>
        <mxCell id="1-QfFzFVaWJn7AieKZZL-25" style="edgeStyle=orthogonalEdgeStyle;rounded=0;orthogonalLoop=1;jettySize=auto;html=1;exitX=0.5;exitY=1;exitDx=0;exitDy=0;entryX=0.5;entryY=0;entryDx=0;entryDy=0;" parent="1" source="1-QfFzFVaWJn7AieKZZL-20" target="1-QfFzFVaWJn7AieKZZL-11" edge="1">
          <mxGeometry relative="1" as="geometry" />
        </mxCell>
        <mxCell id="1-QfFzFVaWJn7AieKZZL-26" style="edgeStyle=orthogonalEdgeStyle;rounded=0;orthogonalLoop=1;jettySize=auto;html=1;exitX=0.5;exitY=1;exitDx=0;exitDy=0;entryX=0.5;entryY=0;entryDx=0;entryDy=0;" parent="1" source="1-QfFzFVaWJn7AieKZZL-20" target="1-QfFzFVaWJn7AieKZZL-14" edge="1">
          <mxGeometry relative="1" as="geometry" />
        </mxCell>
        <mxCell id="1-QfFzFVaWJn7AieKZZL-21" value="主" style="ellipse;whiteSpace=wrap;html=1;aspect=fixed;" parent="1" vertex="1">
          <mxGeometry x="-293.1299999999999" y="3510" width="70" height="70" as="geometry" />
        </mxCell>
        <mxCell id="1-QfFzFVaWJn7AieKZZL-22" value="主" style="ellipse;whiteSpace=wrap;html=1;aspect=fixed;" parent="1" vertex="1">
          <mxGeometry x="-223.12999999999997" y="3510" width="70" height="70" as="geometry" />
        </mxCell>
        <mxCell id="1-QfFzFVaWJn7AieKZZL-23" value="主" style="rounded=0;whiteSpace=wrap;html=1;" parent="1" vertex="1">
          <mxGeometry x="-221.41999999999996" y="3599.5" width="69" height="40" as="geometry" />
        </mxCell>
        <mxCell id="DTGgEnssSz9NTmG7whwD-2" style="edgeStyle=orthogonalEdgeStyle;rounded=0;orthogonalLoop=1;jettySize=auto;html=1;exitX=0.5;exitY=1;exitDx=0;exitDy=0;entryX=0.5;entryY=0;entryDx=0;entryDy=0;" parent="1" source="1-QfFzFVaWJn7AieKZZL-46" target="1-QfFzFVaWJn7AieKZZL-43" edge="1">
          <mxGeometry relative="1" as="geometry" />
        </mxCell>
        <mxCell id="1-QfFzFVaWJn7AieKZZL-46" value="service" style="ellipse;whiteSpace=wrap;html=1;" parent="1" vertex="1">
          <mxGeometry x="-180.17" y="3310" width="230.58" height="100" as="geometry" />
        </mxCell>
        <mxCell id="1-QfFzFVaWJn7AieKZZL-60" value="" style="rounded=0;whiteSpace=wrap;html=1;endArrow=none;dashed=1;html=1;dashPattern=1 3;strokeWidth=2;rounded=0;fillColor=#f5f5f5;fontColor=#333333;strokeColor=#666666;" parent="1" vertex="1">
          <mxGeometry x="-146.01000000000002" y="3740" width="150" height="150" as="geometry" />
        </mxCell>
        <mxCell id="1-QfFzFVaWJn7AieKZZL-15" value="从" style="rounded=0;whiteSpace=wrap;html=1;" parent="1" vertex="1">
          <mxGeometry x="-71.41999999999994" y="3750" width="69" height="40" as="geometry" />
        </mxCell>
        <mxCell id="1-QfFzFVaWJn7AieKZZL-17" value="从" style="rounded=0;whiteSpace=wrap;html=1;" parent="1" vertex="1">
          <mxGeometry x="-135.91999999999996" y="3840" width="69" height="40" as="geometry" />
        </mxCell>
        <mxCell id="1-QfFzFVaWJn7AieKZZL-27" style="edgeStyle=orthogonalEdgeStyle;rounded=0;orthogonalLoop=1;jettySize=auto;html=1;exitX=0.5;exitY=1;exitDx=0;exitDy=0;entryX=0.5;entryY=0;entryDx=0;entryDy=0;" parent="1" source="1-QfFzFVaWJn7AieKZZL-20" target="1-QfFzFVaWJn7AieKZZL-15" edge="1">
          <mxGeometry relative="1" as="geometry" />
        </mxCell>
        <mxCell id="1-QfFzFVaWJn7AieKZZL-13" style="edgeStyle=orthogonalEdgeStyle;rounded=0;orthogonalLoop=1;jettySize=auto;html=1;exitX=0.5;exitY=1;exitDx=0;exitDy=0;entryX=0.5;entryY=0;entryDx=0;entryDy=0;" parent="1" source="1-QfFzFVaWJn7AieKZZL-14" target="1-QfFzFVaWJn7AieKZZL-17" edge="1">
          <mxGeometry relative="1" as="geometry" />
        </mxCell>
        <mxCell id="1-QfFzFVaWJn7AieKZZL-64" value="" style="rounded=1;whiteSpace=wrap;html=1;" parent="1" vertex="1">
          <mxGeometry x="-497.25999999999993" y="4070" width="152.27" height="620" as="geometry" />
        </mxCell>
        <mxCell id="1-QfFzFVaWJn7AieKZZL-65" value="" style="rounded=1;whiteSpace=wrap;html=1;" parent="1" vertex="1">
          <mxGeometry x="-3.75" y="4070" width="147" height="620" as="geometry" />
        </mxCell>
        <mxCell id="1-QfFzFVaWJn7AieKZZL-66" value="server&lt;br&gt;&lt;font color=&quot;#e51515&quot;&gt;个人私钥&lt;/font&gt;" style="text;html=1;align=center;verticalAlign=middle;resizable=0;points=[];autosize=1;strokeColor=none;fillColor=none;" parent="1" vertex="1">
          <mxGeometry x="-3" y="4070" width="70" height="40" as="geometry" />
        </mxCell>
        <mxCell id="1-QfFzFVaWJn7AieKZZL-69" value="csr：公钥，域名，owner签名" style="text;html=1;align=center;verticalAlign=middle;resizable=0;points=[];autosize=1;strokeColor=none;fillColor=none;" parent="1" vertex="1">
          <mxGeometry x="138.25" y="4107" width="180" height="30" as="geometry" />
        </mxCell>
        <mxCell id="1-QfFzFVaWJn7AieKZZL-74" style="edgeStyle=orthogonalEdgeStyle;rounded=0;orthogonalLoop=1;jettySize=auto;html=1;exitX=0;exitY=0.75;exitDx=0;exitDy=0;exitPerimeter=0;entryX=1;entryY=0.25;entryDx=0;entryDy=0;" parent="1" edge="1">
          <mxGeometry relative="1" as="geometry">
            <mxPoint x="142.5" y="4177" as="targetPoint" />
            <mxPoint x="318" y="4177" as="sourcePoint" />
          </mxGeometry>
        </mxCell>
        <mxCell id="1-QfFzFVaWJn7AieKZZL-71" value="CA" style="shape=or;whiteSpace=wrap;html=1;" parent="1" vertex="1">
          <mxGeometry x="320" y="4117" width="60" height="80" as="geometry" />
        </mxCell>
        <mxCell id="1-QfFzFVaWJn7AieKZZL-73" value="" style="endArrow=classic;html=1;rounded=0;entryX=0;entryY=0.25;entryDx=0;entryDy=0;entryPerimeter=0;" parent="1" target="1-QfFzFVaWJn7AieKZZL-71" edge="1">
          <mxGeometry width="50" height="50" relative="1" as="geometry">
            <mxPoint x="143.25" y="4137" as="sourcePoint" />
            <mxPoint x="253.25" y="4147" as="targetPoint" />
          </mxGeometry>
        </mxCell>
        <mxCell id="1-QfFzFVaWJn7AieKZZL-75" value="crt/pem证书链（&lt;font color=&quot;#f00f0f&quot;&gt;含CA签名&lt;/font&gt;）" style="text;html=1;align=center;verticalAlign=middle;resizable=0;points=[];autosize=1;strokeColor=none;fillColor=none;" parent="1" vertex="1">
          <mxGeometry x="144.5" y="4177" width="180" height="30" as="geometry" />
        </mxCell>
        <mxCell id="1-QfFzFVaWJn7AieKZZL-97" value="chrome/os&lt;br&gt;&lt;font style=&quot;border-color: var(--border-color);&quot; color=&quot;#e51f1f&quot;&gt;内置&lt;/font&gt;&lt;font style=&quot;border-color: var(--border-color);&quot; color=&quot;#e61919&quot;&gt;CA公钥&lt;/font&gt;" style="text;html=1;align=center;verticalAlign=middle;resizable=0;points=[];autosize=1;strokeColor=none;fillColor=none;" parent="1" vertex="1">
          <mxGeometry x="-497.8999999999999" y="4070" width="90" height="40" as="geometry" />
        </mxCell>
        <mxCell id="1-QfFzFVaWJn7AieKZZL-104" value="secret = client random + server random&amp;nbsp;+ premaster secret" style="text;html=1;align=center;verticalAlign=middle;resizable=0;points=[];autosize=1;strokeColor=none;fillColor=none;" parent="1" vertex="1">
          <mxGeometry x="-343" y="4510" width="340" height="30" as="geometry" />
        </mxCell>
        <mxCell id="1-QfFzFVaWJn7AieKZZL-106" value="证书链（&lt;font color=&quot;#e11414&quot;&gt;含个人公钥&lt;/font&gt;）" style="rounded=1;whiteSpace=wrap;html=1;" parent="1" vertex="1">
          <mxGeometry x="-487.4" y="4137" width="126.7" height="40" as="geometry" />
        </mxCell>
        <mxCell id="1-QfFzFVaWJn7AieKZZL-107" value="个人密钥非对称加密" style="text;html=1;align=center;verticalAlign=middle;resizable=0;points=[];autosize=1;strokeColor=none;fillColor=none;" parent="1" vertex="1">
          <mxGeometry x="-239.40999999999997" y="4239.5" width="130" height="30" as="geometry" />
        </mxCell>
        <mxCell id="4RNN0aue383wYEhSYXZz-1" value="" style="rounded=1;whiteSpace=wrap;html=1;" parent="1" vertex="1">
          <mxGeometry x="340" y="522.5" width="190" height="337.5" as="geometry" />
        </mxCell>
        <mxCell id="t3kxCUk_UYJJ-cdm4f_f-19" value="Application Layer" style="text;html=1;align=center;verticalAlign=middle;resizable=0;points=[];autosize=1;strokeColor=none;fillColor=none;" parent="1" vertex="1">
          <mxGeometry x="-563.2999999999998" y="4960" width="120" height="30" as="geometry" />
        </mxCell>
        <mxCell id="t3kxCUk_UYJJ-cdm4f_f-20" value="Transport Layer" style="text;html=1;align=center;verticalAlign=middle;resizable=0;points=[];autosize=1;strokeColor=none;fillColor=none;" parent="1" vertex="1">
          <mxGeometry x="-561.9999999999999" y="5090" width="110" height="30" as="geometry" />
        </mxCell>
        <mxCell id="t3kxCUk_UYJJ-cdm4f_f-22" value="Link Layer" style="text;html=1;align=center;verticalAlign=middle;resizable=0;points=[];autosize=1;strokeColor=none;fillColor=none;" parent="1" vertex="1">
          <mxGeometry x="-561.9999999999999" y="5401" width="80" height="30" as="geometry" />
        </mxCell>
        <mxCell id="t3kxCUk_UYJJ-cdm4f_f-26" value="Network Layer" style="text;html=1;align=center;verticalAlign=middle;resizable=0;points=[];autosize=1;strokeColor=none;fillColor=none;" parent="1" vertex="1">
          <mxGeometry x="-563.29" y="5270" width="100" height="30" as="geometry" />
        </mxCell>
        <mxCell id="t3kxCUk_UYJJ-cdm4f_f-28" value="" style="rounded=0;whiteSpace=wrap;html=1;" parent="1" vertex="1">
          <mxGeometry x="1.820000000000034" y="5400" width="291.25" height="130" as="geometry" />
        </mxCell>
        <mxCell id="t3kxCUk_UYJJ-cdm4f_f-29" value="" style="rounded=0;whiteSpace=wrap;html=1;" parent="1" vertex="1">
          <mxGeometry x="1.820000000000034" y="5270" width="291.25" height="130" as="geometry" />
        </mxCell>
        <mxCell id="t3kxCUk_UYJJ-cdm4f_f-30" value="" style="rounded=0;whiteSpace=wrap;html=1;" parent="1" vertex="1">
          <mxGeometry x="1.830000000000025" y="5090" width="291.25" height="180" as="geometry" />
        </mxCell>
        <mxCell id="t3kxCUk_UYJJ-cdm4f_f-31" value="" style="rounded=0;whiteSpace=wrap;html=1;" parent="1" vertex="1">
          <mxGeometry x="1.820000000000034" y="4960" width="291.25" height="130" as="geometry" />
        </mxCell>
        <mxCell id="t3kxCUk_UYJJ-cdm4f_f-32" value="Application Layer" style="text;html=1;align=center;verticalAlign=middle;resizable=0;points=[];autosize=1;strokeColor=none;fillColor=none;" parent="1" vertex="1">
          <mxGeometry x="1.8200000000001477" y="4960" width="120" height="30" as="geometry" />
        </mxCell>
        <mxCell id="t3kxCUk_UYJJ-cdm4f_f-33" value="Transport Layer" style="text;html=1;align=center;verticalAlign=middle;resizable=0;points=[];autosize=1;strokeColor=none;fillColor=none;" parent="1" vertex="1">
          <mxGeometry x="3.1200000000000454" y="5090" width="110" height="30" as="geometry" />
        </mxCell>
        <mxCell id="t3kxCUk_UYJJ-cdm4f_f-34" value="Link Layer" style="text;html=1;align=center;verticalAlign=middle;resizable=0;points=[];autosize=1;strokeColor=none;fillColor=none;" parent="1" vertex="1">
          <mxGeometry x="3.1200000000000454" y="5401" width="80" height="30" as="geometry" />
        </mxCell>
        <mxCell id="t3kxCUk_UYJJ-cdm4f_f-35" value="Network Layer" style="text;html=1;align=center;verticalAlign=middle;resizable=0;points=[];autosize=1;strokeColor=none;fillColor=none;" parent="1" vertex="1">
          <mxGeometry x="1.830000000000025" y="5270" width="100" height="30" as="geometry" />
        </mxCell>
        <mxCell id="t3kxCUk_UYJJ-cdm4f_f-36" value="" style="endArrow=classic;startArrow=classic;html=1;rounded=0;entryX=0;entryY=0.5;entryDx=0;entryDy=0;exitX=1;exitY=0.5;exitDx=0;exitDy=0;" parent="1" edge="1">
          <mxGeometry width="50" height="50" relative="1" as="geometry">
            <mxPoint x="-273.99999999999994" y="5150" as="sourcePoint" />
            <mxPoint x="-0.13000000000007284" y="5150" as="targetPoint" />
          </mxGeometry>
        </mxCell>
        <mxCell id="t3kxCUk_UYJJ-cdm4f_f-37" value="ABC：SYN，seq，ACK" style="text;html=1;align=center;verticalAlign=middle;resizable=0;points=[];autosize=1;strokeColor=none;fillColor=none;" parent="1" vertex="1">
          <mxGeometry x="-216.42" y="5120" width="150" height="30" as="geometry" />
        </mxCell>
        <mxCell id="t3kxCUk_UYJJ-cdm4f_f-38" value="AB-BC：FIN，seq，ACK" style="text;html=1;align=center;verticalAlign=middle;resizable=0;points=[];autosize=1;strokeColor=none;fillColor=none;" parent="1" vertex="1">
          <mxGeometry x="-215.99999999999997" y="5200" width="160" height="30" as="geometry" />
        </mxCell>
        <mxCell id="t3kxCUk_UYJJ-cdm4f_f-39" value="client" style="text;html=1;align=center;verticalAlign=middle;resizable=0;points=[];autosize=1;strokeColor=none;fillColor=none;" parent="1" vertex="1">
          <mxGeometry x="-443.3" y="4880" width="50" height="30" as="geometry" />
        </mxCell>
        <mxCell id="t3kxCUk_UYJJ-cdm4f_f-40" value="" style="shape=flexArrow;endArrow=classic;html=1;rounded=0;entryX=0.5;entryY=0;entryDx=0;entryDy=0;" parent="1" target="t3kxCUk_UYJJ-cdm4f_f-23" edge="1">
          <mxGeometry width="50" height="50" relative="1" as="geometry">
            <mxPoint x="-417.42" y="4910" as="sourcePoint" />
            <mxPoint x="-371.42" y="4850" as="targetPoint" />
          </mxGeometry>
        </mxCell>
        <mxCell id="t3kxCUk_UYJJ-cdm4f_f-41" value="arp缓存表（ip-mac）" style="rounded=0;whiteSpace=wrap;html=1;" parent="1" vertex="1">
          <mxGeometry x="-701.42" y="5270" width="138.12" height="260" as="geometry" />
        </mxCell>
        <mxCell id="t3kxCUk_UYJJ-cdm4f_f-42" value="路由器的路由表：&lt;br&gt;目标地址，子网掩码，下一跳，端口" style="rounded=0;whiteSpace=wrap;html=1;" parent="1" vertex="1">
          <mxGeometry x="-252" y="4830" width="232" height="90" as="geometry" />
        </mxCell>
        <mxCell id="4cEKuYUSRFedbJw1HV78-1" value="service1(TM)" style="text;html=1;align=center;verticalAlign=middle;resizable=0;points=[];autosize=1;strokeColor=#666666;fillColor=#f5f5f5;fontColor=#333333;" parent="1" vertex="1">
          <mxGeometry x="-425.77" y="-310" width="90" height="30" as="geometry" />
        </mxCell>
        <mxCell id="4cEKuYUSRFedbJw1HV78-2" value="&lt;br&gt;&lt;br&gt;localLock&lt;br&gt;prepare&lt;br&gt;commit/rollback" style="rounded=1;whiteSpace=wrap;html=1;" parent="1" vertex="1">
          <mxGeometry x="-645.4599999999999" y="-440" width="120" height="100" as="geometry" />
        </mxCell>
        <mxCell id="4cEKuYUSRFedbJw1HV78-3" value="DataSourceProxy&lt;br&gt;xid-undo_log&lt;br&gt;timerExecutor" style="rounded=1;whiteSpace=wrap;html=1;fillColor=#f5f5f5;fontColor=#333333;strokeColor=#666666;" parent="1" vertex="1">
          <mxGeometry x="-645.4599999999999" y="-340" width="120" height="60" as="geometry" />
        </mxCell>
        <mxCell id="4cEKuYUSRFedbJw1HV78-4" value="service2(RM)" style="text;html=1;align=center;verticalAlign=middle;resizable=0;points=[];autosize=1;strokeColor=#666666;fillColor=#f5f5f5;fontColor=#333333;" parent="1" vertex="1">
          <mxGeometry x="-645.31" y="-440" width="90" height="30" as="geometry" />
        </mxCell>
        <mxCell id="4cEKuYUSRFedbJw1HV78-5" value="&lt;br&gt;&lt;br&gt;localLock&lt;br&gt;prepare&lt;br&gt;commit/rollback" style="rounded=1;whiteSpace=wrap;html=1;" parent="1" vertex="1">
          <mxGeometry x="-645.4599999999998" y="-160" width="120" height="100" as="geometry" />
        </mxCell>
        <mxCell id="4cEKuYUSRFedbJw1HV78-6" value="DataSourceProxy&lt;br style=&quot;border-color: var(--border-color);&quot;&gt;xid-undo_log&lt;br style=&quot;border-color: var(--border-color);&quot;&gt;timerExecutor" style="rounded=1;whiteSpace=wrap;html=1;fillColor=#f5f5f5;fontColor=#333333;strokeColor=#666666;" parent="1" vertex="1">
          <mxGeometry x="-645.4599999999998" y="-60" width="120" height="60" as="geometry" />
        </mxCell>
        <mxCell id="4cEKuYUSRFedbJw1HV78-7" value="service3(RM)" style="text;html=1;align=center;verticalAlign=middle;resizable=0;points=[];autosize=1;strokeColor=#666666;fillColor=#f5f5f5;fontColor=#333333;" parent="1" vertex="1">
          <mxGeometry x="-645.3099999999998" y="-160" width="90" height="30" as="geometry" />
        </mxCell>
        <mxCell id="4cEKuYUSRFedbJw1HV78-8" value="" style="endArrow=classic;html=1;rounded=0;exitX=0;exitY=0.5;exitDx=0;exitDy=0;entryX=1;entryY=0.75;entryDx=0;entryDy=0;" parent="1" source="6-CSaQUG5OHRiRnEXRL_-2" target="4cEKuYUSRFedbJw1HV78-2" edge="1">
          <mxGeometry width="50" height="50" relative="1" as="geometry">
            <mxPoint x="-570.15" y="-190" as="sourcePoint" />
            <mxPoint x="-520.15" y="-240" as="targetPoint" />
          </mxGeometry>
        </mxCell>
        <mxCell id="4cEKuYUSRFedbJw1HV78-9" value="" style="endArrow=classic;html=1;rounded=0;exitX=0;exitY=0.5;exitDx=0;exitDy=0;entryX=1;entryY=0.25;entryDx=0;entryDy=0;" parent="1" source="6-CSaQUG5OHRiRnEXRL_-2" target="4cEKuYUSRFedbJw1HV78-5" edge="1">
          <mxGeometry width="50" height="50" relative="1" as="geometry">
            <mxPoint x="-690.15" y="-180" as="sourcePoint" />
            <mxPoint x="-640.15" y="-230" as="targetPoint" />
          </mxGeometry>
        </mxCell>
        <mxCell id="4cEKuYUSRFedbJw1HV78-10" value="" style="endArrow=classic;startArrow=classic;html=1;rounded=0;exitX=1;exitY=0.5;exitDx=0;exitDy=0;entryX=-0.008;entryY=0.117;entryDx=0;entryDy=0;entryPerimeter=0;dashed=1;html=1;rounded=0;" parent="1" source="4cEKuYUSRFedbJw1HV78-2" target="GEgLhVlXAB5wURAWG2Ov-4" edge="1">
          <mxGeometry width="50" height="50" relative="1" as="geometry">
            <mxPoint x="-340.15" y="-420" as="sourcePoint" />
            <mxPoint x="-214.746" y="-388.52" as="targetPoint" />
          </mxGeometry>
        </mxCell>
        <mxCell id="4cEKuYUSRFedbJw1HV78-11" value="" style="endArrow=classic;startArrow=classic;html=1;rounded=0;exitX=1;exitY=0.5;exitDx=0;exitDy=0;dashed=1;html=1;rounded=0;" parent="1" source="6-CSaQUG5OHRiRnEXRL_-2" edge="1">
          <mxGeometry width="50" height="50" relative="1" as="geometry">
            <mxPoint x="-280.15" y="-310" as="sourcePoint" />
            <mxPoint x="-60" y="-260" as="targetPoint" />
          </mxGeometry>
        </mxCell>
        <mxCell id="4cEKuYUSRFedbJw1HV78-13" value="" style="endArrow=classic;startArrow=classic;html=1;rounded=0;exitX=1;exitY=0.5;exitDx=0;exitDy=0;entryX=0;entryY=0.75;entryDx=0;entryDy=0;dashed=1;html=1;rounded=0;" parent="1" source="4cEKuYUSRFedbJw1HV78-5" target="GEgLhVlXAB5wURAWG2Ov-4" edge="1">
          <mxGeometry width="50" height="50" relative="1" as="geometry">
            <mxPoint x="-340.15" y="-70" as="sourcePoint" />
            <mxPoint x="-214.32000000000008" y="-110" as="targetPoint" />
          </mxGeometry>
        </mxCell>
        <mxCell id="9n-n1iBPHZ0IUt7xd2MY-1" value="xid" style="text;html=1;align=center;verticalAlign=middle;resizable=0;points=[];autosize=1;strokeColor=none;fillColor=none;" parent="1" vertex="1">
          <mxGeometry x="-310" y="-420" width="40" height="30" as="geometry" />
        </mxCell>
        <mxCell id="9n-n1iBPHZ0IUt7xd2MY-2" value="GlobalTransactionalInterceptor&lt;br&gt;xid" style="text;html=1;align=center;verticalAlign=middle;resizable=0;points=[];autosize=1;strokeColor=none;fillColor=none;" parent="1" vertex="1">
          <mxGeometry x="-274.99999999999994" y="-300" width="190" height="40" as="geometry" />
        </mxCell>
        <mxCell id="9n-n1iBPHZ0IUt7xd2MY-3" value="xid" style="text;html=1;align=center;verticalAlign=middle;resizable=0;points=[];autosize=1;strokeColor=none;fillColor=none;" parent="1" vertex="1">
          <mxGeometry x="-304.8299999999999" y="-110" width="40" height="30" as="geometry" />
        </mxCell>
        <mxCell id="9n-n1iBPHZ0IUt7xd2MY-4" value="xid" style="text;html=1;align=center;verticalAlign=middle;resizable=0;points=[];autosize=1;strokeColor=none;fillColor=none;" parent="1" vertex="1">
          <mxGeometry x="-492.15" y="-340" width="40" height="30" as="geometry" />
        </mxCell>
        <mxCell id="9n-n1iBPHZ0IUt7xd2MY-5" value="xid" style="text;html=1;align=center;verticalAlign=middle;resizable=0;points=[];autosize=1;strokeColor=none;fillColor=none;" parent="1" vertex="1">
          <mxGeometry x="-511.57" y="-220" width="40" height="30" as="geometry" />
        </mxCell>
        <mxCell id="9n-n1iBPHZ0IUt7xd2MY-7" style="edgeStyle=orthogonalEdgeStyle;rounded=0;orthogonalLoop=1;jettySize=auto;html=1;exitX=1;exitY=0.75;exitDx=0;exitDy=0;entryX=0;entryY=0.5;entryDx=0;entryDy=0;" parent="1" source="GEgLhVlXAB5wURAWG2Ov-21" target="GEgLhVlXAB5wURAWG2Ov-19" edge="1">
          <mxGeometry relative="1" as="geometry" />
        </mxCell>
        <mxCell id="9n-n1iBPHZ0IUt7xd2MY-8" value="Consumer&lt;br style=&quot;border-color: var(--border-color);&quot;&gt;Producer" style="rounded=1;whiteSpace=wrap;html=1;" parent="1" vertex="1">
          <mxGeometry x="375" y="546" width="120" height="60" as="geometry" />
        </mxCell>
        <mxCell id="9n-n1iBPHZ0IUt7xd2MY-9" value="Binder&lt;br style=&quot;border-color: var(--border-color);&quot;&gt;Binding&lt;br style=&quot;border-color: var(--border-color);&quot;&gt;Message&lt;br style=&quot;border-color: var(--border-color);&quot;&gt;MessageChannel（poll/push）&lt;br style=&quot;border-color: var(--border-color);&quot;&gt;&lt;br&gt;&lt;br style=&quot;border-color: var(--border-color);&quot;&gt;StreamBridge&lt;br style=&quot;border-color: var(--border-color);&quot;&gt;BusBridge&amp;amp;Event" style="rounded=1;whiteSpace=wrap;html=1;" parent="1" vertex="1">
          <mxGeometry x="375" y="640" width="120" height="190" as="geometry" />
        </mxCell>
        <mxCell id="bzMrh9cclYOT93m_ledv-1" value="页级锁" style="rounded=0;whiteSpace=wrap;html=1;" parent="1" vertex="1">
          <mxGeometry x="1228.75" y="2120" width="120" height="160" as="geometry" />
        </mxCell>
        <mxCell id="DTGgEnssSz9NTmG7whwD-4" value="......" style="ellipse;whiteSpace=wrap;html=1;aspect=fixed;" parent="1" vertex="1">
          <mxGeometry x="-150.70999999999995" y="3510" width="70" height="70" as="geometry" />
        </mxCell>
        <mxCell id="azcfL-PNQs-A8qb95TJc-1" value="Buffer Pool&lt;br&gt;pages，dirty pages" style="rounded=1;whiteSpace=wrap;html=1;" parent="1" vertex="1">
          <mxGeometry x="-355.25" y="2190" width="190.16" height="45.5" as="geometry" />
        </mxCell>
        <mxCell id="dYZf33wxHx9ybI3jIAu1-4" value="" style="endArrow=classic;html=1;rounded=0;exitX=0.5;exitY=1;exitDx=0;exitDy=0;entryX=0.311;entryY=0.004;entryDx=0;entryDy=0;entryPerimeter=0;" parent="1" source="jQRCav7DTQBNGYD-x8mf-4" target="KB4VtI-CPYROKvUSriaM-39" edge="1">
          <mxGeometry width="50" height="50" relative="1" as="geometry">
            <mxPoint x="-570" y="1900" as="sourcePoint" />
            <mxPoint x="-520" y="1850" as="targetPoint" />
          </mxGeometry>
        </mxCell>
        <mxCell id="dYZf33wxHx9ybI3jIAu1-5" value="row" style="ellipse;whiteSpace=wrap;html=1;" parent="1" vertex="1">
          <mxGeometry x="920" y="1854.5" width="80" height="80" as="geometry" />
        </mxCell>
        <mxCell id="dYZf33wxHx9ybI3jIAu1-6" value="v1" style="text;html=1;align=center;verticalAlign=middle;resizable=0;points=[];autosize=1;strokeColor=none;fillColor=none;" parent="1" vertex="1">
          <mxGeometry x="1014.75" y="1909.5" width="40" height="30" as="geometry" />
        </mxCell>
        <mxCell id="dYZf33wxHx9ybI3jIAu1-7" value="v2" style="text;html=1;align=center;verticalAlign=middle;resizable=0;points=[];autosize=1;strokeColor=none;fillColor=none;" parent="1" vertex="1">
          <mxGeometry x="1055.5" y="1854.5" width="40" height="30" as="geometry" />
        </mxCell>
        <mxCell id="cuOZ3U2S4svU4EkSFh8x-24" value="" style="endArrow=none;dashed=1;html=1;rounded=0;" parent="1" edge="1">
          <mxGeometry width="50" height="50" relative="1" as="geometry">
            <mxPoint x="1190" y="1874.5" as="sourcePoint" />
            <mxPoint x="1120" y="1920" as="targetPoint" />
          </mxGeometry>
        </mxCell>
        <mxCell id="cuOZ3U2S4svU4EkSFh8x-25" value="" style="endArrow=none;dashed=1;html=1;rounded=0;entryX=0.806;entryY=0.75;entryDx=0;entryDy=0;entryPerimeter=0;" parent="1" target="cuOZ3U2S4svU4EkSFh8x-16" edge="1">
          <mxGeometry width="50" height="50" relative="1" as="geometry">
            <mxPoint x="1190" y="1874.5" as="sourcePoint" />
            <mxPoint x="1320" y="1924.5" as="targetPoint" />
          </mxGeometry>
        </mxCell>
        <mxCell id="dYZf33wxHx9ybI3jIAu1-13" value="Kubectl&lt;br&gt;CLI" style="rounded=0;whiteSpace=wrap;html=1;" parent="1" vertex="1">
          <mxGeometry x="-596.9" y="5917.5" width="120" height="60" as="geometry" />
        </mxCell>
        <mxCell id="dYZf33wxHx9ybI3jIAu1-49" style="edgeStyle=orthogonalEdgeStyle;rounded=0;orthogonalLoop=1;jettySize=auto;html=1;exitX=1;exitY=0.5;exitDx=0;exitDy=0;" parent="1" source="dYZf33wxHx9ybI3jIAu1-14" target="dYZf33wxHx9ybI3jIAu1-15" edge="1">
          <mxGeometry relative="1" as="geometry" />
        </mxCell>
        <mxCell id="dYZf33wxHx9ybI3jIAu1-14" value="" style="rounded=0;whiteSpace=wrap;html=1;" parent="1" vertex="1">
          <mxGeometry x="-400" y="5710" width="440" height="440" as="geometry" />
        </mxCell>
        <mxCell id="dYZf33wxHx9ybI3jIAu1-15" value="" style="rounded=0;whiteSpace=wrap;html=1;" parent="1" vertex="1">
          <mxGeometry x="167.32" y="5710" width="472.68" height="440" as="geometry" />
        </mxCell>
        <mxCell id="dYZf33wxHx9ybI3jIAu1-16" value="Kubernetes Server（Master）" style="text;html=1;align=center;verticalAlign=middle;resizable=0;points=[];autosize=1;strokeColor=none;fillColor=none;" parent="1" vertex="1">
          <mxGeometry x="-398.74999999999994" y="5710" width="180" height="30" as="geometry" />
        </mxCell>
        <mxCell id="dYZf33wxHx9ybI3jIAu1-21" style="edgeStyle=orthogonalEdgeStyle;rounded=0;orthogonalLoop=1;jettySize=auto;html=1;exitX=0.5;exitY=1;exitDx=0;exitDy=0;entryX=0.5;entryY=0;entryDx=0;entryDy=0;" parent="1" source="dYZf33wxHx9ybI3jIAu1-17" target="dYZf33wxHx9ybI3jIAu1-18" edge="1">
          <mxGeometry relative="1" as="geometry" />
        </mxCell>
        <mxCell id="dYZf33wxHx9ybI3jIAu1-22" style="edgeStyle=orthogonalEdgeStyle;rounded=0;orthogonalLoop=1;jettySize=auto;html=1;exitX=0.5;exitY=1;exitDx=0;exitDy=0;" parent="1" source="dYZf33wxHx9ybI3jIAu1-17" target="dYZf33wxHx9ybI3jIAu1-19" edge="1">
          <mxGeometry relative="1" as="geometry" />
        </mxCell>
        <mxCell id="dYZf33wxHx9ybI3jIAu1-23" style="edgeStyle=orthogonalEdgeStyle;rounded=0;orthogonalLoop=1;jettySize=auto;html=1;exitX=0.5;exitY=1;exitDx=0;exitDy=0;entryX=0.5;entryY=0;entryDx=0;entryDy=0;" parent="1" source="dYZf33wxHx9ybI3jIAu1-17" target="dYZf33wxHx9ybI3jIAu1-20" edge="1">
          <mxGeometry relative="1" as="geometry" />
        </mxCell>
        <mxCell id="dYZf33wxHx9ybI3jIAu1-17" value="API Server&lt;br&gt;rest api&lt;br&gt;认证Authentication：X509-HTTPS/Token/Account....&lt;br&gt;授权Authorization&lt;br&gt;准入控制AdmissionControl&lt;br&gt;privateKey" style="rounded=1;whiteSpace=wrap;html=1;" parent="1" vertex="1">
          <mxGeometry x="-351.58" y="5760" width="350" height="138.25" as="geometry" />
        </mxCell>
        <mxCell id="dYZf33wxHx9ybI3jIAu1-18" value="Scheduler&lt;br&gt;将Pod调度到合适的Node上" style="rounded=1;whiteSpace=wrap;html=1;" parent="1" vertex="1">
          <mxGeometry x="-385" y="5940" width="190" height="60" as="geometry" />
        </mxCell>
        <mxCell id="dYZf33wxHx9ybI3jIAu1-19" value="Controller Manager&lt;br&gt;监控并控制集群状态" style="rounded=1;whiteSpace=wrap;html=1;" parent="1" vertex="1">
          <mxGeometry x="-160" y="5940" width="183.93" height="60" as="geometry" />
        </mxCell>
        <mxCell id="dYZf33wxHx9ybI3jIAu1-20" value="&amp;nbsp;ClusterStateStore&lt;br&gt;Etcd" style="rounded=1;whiteSpace=wrap;html=1;" parent="1" vertex="1">
          <mxGeometry x="-375.75" y="6043.25" width="400" height="76.75" as="geometry" />
        </mxCell>
        <mxCell id="dYZf33wxHx9ybI3jIAu1-29" value="Node....." style="text;html=1;align=center;verticalAlign=middle;resizable=0;points=[];autosize=1;strokeColor=none;fillColor=none;" parent="1" vertex="1">
          <mxGeometry x="167.25" y="5710" width="70" height="30" as="geometry" />
        </mxCell>
        <mxCell id="dYZf33wxHx9ybI3jIAu1-43" style="edgeStyle=orthogonalEdgeStyle;rounded=0;orthogonalLoop=1;jettySize=auto;html=1;exitX=0.5;exitY=1;exitDx=0;exitDy=0;entryX=0.5;entryY=0;entryDx=0;entryDy=0;" parent="1" source="dYZf33wxHx9ybI3jIAu1-30" target="dYZf33wxHx9ybI3jIAu1-33" edge="1">
          <mxGeometry relative="1" as="geometry" />
        </mxCell>
        <mxCell id="dYZf33wxHx9ybI3jIAu1-30" value="kubelet&lt;br&gt;注册/上报/控制node&lt;br&gt;HeartBeat" style="rounded=1;whiteSpace=wrap;html=1;" parent="1" vertex="1">
          <mxGeometry x="196.75" y="5782.5" width="190" height="77.5" as="geometry" />
        </mxCell>
        <mxCell id="dYZf33wxHx9ybI3jIAu1-44" style="edgeStyle=orthogonalEdgeStyle;rounded=0;orthogonalLoop=1;jettySize=auto;html=1;exitX=0.5;exitY=1;exitDx=0;exitDy=0;entryX=0.5;entryY=0;entryDx=0;entryDy=0;" parent="1" source="dYZf33wxHx9ybI3jIAu1-31" target="dYZf33wxHx9ybI3jIAu1-33" edge="1">
          <mxGeometry relative="1" as="geometry" />
        </mxCell>
        <mxCell id="dYZf33wxHx9ybI3jIAu1-31" value="kube-proxy&lt;br&gt;将Pod暴露为Service&lt;br&gt;对外提供稳定的IP/DNS" style="rounded=1;whiteSpace=wrap;html=1;" parent="1" vertex="1">
          <mxGeometry x="426.75" y="5782.5" width="180" height="77.5" as="geometry" />
        </mxCell>
        <mxCell id="dYZf33wxHx9ybI3jIAu1-33" value="" style="rounded=0;whiteSpace=wrap;html=1;" parent="1" vertex="1">
          <mxGeometry x="226.54" y="5900" width="353.25" height="212.5" as="geometry" />
        </mxCell>
        <mxCell id="dYZf33wxHx9ybI3jIAu1-34" value="Container Runtime (Docker)" style="text;html=1;align=center;verticalAlign=middle;resizable=0;points=[];autosize=1;strokeColor=none;fillColor=none;" parent="1" vertex="1">
          <mxGeometry x="226.54" y="5900" width="170" height="30" as="geometry" />
        </mxCell>
        <mxCell id="dYZf33wxHx9ybI3jIAu1-35" value="container1&lt;br&gt;container2" style="whiteSpace=wrap;html=1;" parent="1" vertex="1">
          <mxGeometry x="261" y="5992.5" width="120" height="90" as="geometry" />
        </mxCell>
        <mxCell id="dYZf33wxHx9ybI3jIAu1-36" value="Pod" style="text;html=1;align=center;verticalAlign=middle;resizable=0;points=[];autosize=1;strokeColor=none;fillColor=none;" parent="1" vertex="1">
          <mxGeometry x="261" y="5992.5" width="40" height="30" as="geometry" />
        </mxCell>
        <mxCell id="dYZf33wxHx9ybI3jIAu1-39" value="............" style="whiteSpace=wrap;html=1;" parent="1" vertex="1">
          <mxGeometry x="422.5" y="5992.5" width="120" height="90" as="geometry" />
        </mxCell>
        <mxCell id="dYZf33wxHx9ybI3jIAu1-40" value="Pod" style="text;html=1;align=center;verticalAlign=middle;resizable=0;points=[];autosize=1;strokeColor=none;fillColor=none;" parent="1" vertex="1">
          <mxGeometry x="422.5" y="5992.5" width="40" height="30" as="geometry" />
        </mxCell>
        <mxCell id="dYZf33wxHx9ybI3jIAu1-47" style="edgeStyle=orthogonalEdgeStyle;rounded=0;orthogonalLoop=1;jettySize=auto;html=1;exitX=1;exitY=0.5;exitDx=0;exitDy=0;entryX=0;entryY=0.5;entryDx=0;entryDy=0;" parent="1" source="dYZf33wxHx9ybI3jIAu1-13" target="dYZf33wxHx9ybI3jIAu1-17" edge="1">
          <mxGeometry relative="1" as="geometry">
            <Array as="points">
              <mxPoint x="-440" y="5948" />
              <mxPoint x="-440" y="5829" />
            </Array>
          </mxGeometry>
        </mxCell>
        <mxCell id="dYZf33wxHx9ybI3jIAu1-52" value="" style="whiteSpace=wrap;html=1;" parent="1" vertex="1">
          <mxGeometry x="-398.75" y="6200" width="1008.75" height="240" as="geometry" />
        </mxCell>
        <mxCell id="dYZf33wxHx9ybI3jIAu1-54" value="common pod" style="text;html=1;align=center;verticalAlign=middle;resizable=0;points=[];autosize=1;strokeColor=none;fillColor=none;" parent="1" vertex="1">
          <mxGeometry x="-398.75" y="6200" width="90" height="30" as="geometry" />
        </mxCell>
        <mxCell id="ir3aHIoUcpfPWPxd4JQR-2" value="Envoy Proxy" style="whiteSpace=wrap;html=1;" parent="1" vertex="1">
          <mxGeometry x="261" y="5952.5" width="120" height="40" as="geometry" />
        </mxCell>
        <mxCell id="ir3aHIoUcpfPWPxd4JQR-3" value="Envoy Proxy" style="whiteSpace=wrap;html=1;" parent="1" vertex="1">
          <mxGeometry x="422.49999999999994" y="5955" width="120" height="40" as="geometry" />
        </mxCell>
        <mxCell id="ir3aHIoUcpfPWPxd4JQR-4" value="ConfigMap" style="rounded=1;whiteSpace=wrap;html=1;" parent="1" vertex="1">
          <mxGeometry x="-293.5" y="6250" width="120" height="60" as="geometry" />
        </mxCell>
        <mxCell id="ir3aHIoUcpfPWPxd4JQR-5" value="CoreDNS" style="rounded=1;whiteSpace=wrap;html=1;" parent="1" vertex="1">
          <mxGeometry x="-131.92" y="6250" width="120" height="60" as="geometry" />
        </mxCell>
        <mxCell id="ir3aHIoUcpfPWPxd4JQR-6" value="Ingress" style="rounded=1;whiteSpace=wrap;html=1;" parent="1" vertex="1">
          <mxGeometry x="35.000000000000014" y="6250" width="120" height="60" as="geometry" />
        </mxCell>
        <mxCell id="ir3aHIoUcpfPWPxd4JQR-7" value="StorageClass-PersistentVolume&lt;br&gt;EmptyDir" style="rounded=1;whiteSpace=wrap;html=1;" parent="1" vertex="1">
          <mxGeometry x="-295.54999999999995" y="6340" width="231" height="60" as="geometry" />
        </mxCell>
        <mxCell id="ir3aHIoUcpfPWPxd4JQR-8" value="Istiod&lt;br&gt;Control Plane" style="rounded=1;whiteSpace=wrap;html=1;" parent="1" vertex="1">
          <mxGeometry x="354" y="6250" width="120" height="60" as="geometry" />
        </mxCell>
        <mxCell id="ir3aHIoUcpfPWPxd4JQR-9" value="探针" style="rounded=1;whiteSpace=wrap;html=1;" parent="1" vertex="1">
          <mxGeometry x="184.5" y="6250" width="120" height="60" as="geometry" />
        </mxCell>
        <mxCell id="6x8IEIiFTuxesFSre7IT-1" value="rowLock" style="text;html=1;align=center;verticalAlign=middle;resizable=0;points=[];autosize=1;strokeColor=none;fillColor=none;" parent="1" vertex="1">
          <mxGeometry x="1154.75" y="1879.5" width="70" height="30" as="geometry" />
        </mxCell>
        <mxCell id="utSnjSDQXpIVAYe2Muuz-1" value="" style="endArrow=classic;html=1;rounded=0;entryX=0.5;entryY=0;entryDx=0;entryDy=0;" parent="1" source="utSnjSDQXpIVAYe2Muuz-2" target="jQRCav7DTQBNGYD-x8mf-4" edge="1">
          <mxGeometry width="50" height="50" relative="1" as="geometry">
            <mxPoint x="-356" y="1740" as="sourcePoint" />
            <mxPoint x="-270" y="1650" as="targetPoint" />
          </mxGeometry>
        </mxCell>
        <mxCell id="utSnjSDQXpIVAYe2Muuz-2" value="crud" style="text;html=1;align=center;verticalAlign=middle;resizable=0;points=[];autosize=1;strokeColor=none;fillColor=none;" parent="1" vertex="1">
          <mxGeometry x="-380.55" y="1695" width="50" height="30" as="geometry" />
        </mxCell>
        <mxCell id="ir0Q4uBNW8_hernkWuMR-22" style="edgeStyle=orthogonalEdgeStyle;rounded=0;orthogonalLoop=1;jettySize=auto;html=1;exitX=0.25;exitY=1;exitDx=0;exitDy=0;entryX=0.5;entryY=0;entryDx=0;entryDy=0;" parent="1" source="ir0Q4uBNW8_hernkWuMR-1" target="ir0Q4uBNW8_hernkWuMR-10" edge="1">
          <mxGeometry relative="1" as="geometry" />
        </mxCell>
        <mxCell id="ir0Q4uBNW8_hernkWuMR-23" style="edgeStyle=orthogonalEdgeStyle;rounded=0;orthogonalLoop=1;jettySize=auto;html=1;exitX=0.25;exitY=1;exitDx=0;exitDy=0;entryX=0.5;entryY=0;entryDx=0;entryDy=0;" parent="1" source="ir0Q4uBNW8_hernkWuMR-1" target="ir0Q4uBNW8_hernkWuMR-11" edge="1">
          <mxGeometry relative="1" as="geometry" />
        </mxCell>
        <mxCell id="ir0Q4uBNW8_hernkWuMR-24" style="edgeStyle=orthogonalEdgeStyle;rounded=0;orthogonalLoop=1;jettySize=auto;html=1;exitX=0.75;exitY=1;exitDx=0;exitDy=0;entryX=0.5;entryY=0;entryDx=0;entryDy=0;" parent="1" source="ir0Q4uBNW8_hernkWuMR-1" target="ir0Q4uBNW8_hernkWuMR-12" edge="1">
          <mxGeometry relative="1" as="geometry" />
        </mxCell>
        <mxCell id="ir0Q4uBNW8_hernkWuMR-1" value="" style="rounded=1;whiteSpace=wrap;html=1;" parent="1" vertex="1">
          <mxGeometry x="-233.09" y="6600" width="268.09" height="110" as="geometry" />
        </mxCell>
        <mxCell id="ir0Q4uBNW8_hernkWuMR-10" value="node1" style="rounded=0;whiteSpace=wrap;html=1;" parent="1" vertex="1">
          <mxGeometry x="-278.71" y="6860" width="92" height="60" as="geometry" />
        </mxCell>
        <mxCell id="ir0Q4uBNW8_hernkWuMR-11" value="node1" style="rounded=0;whiteSpace=wrap;html=1;" parent="1" vertex="1">
          <mxGeometry x="-145.21" y="6860" width="92" height="60" as="geometry" />
        </mxCell>
        <mxCell id="ir0Q4uBNW8_hernkWuMR-12" value="node2" style="rounded=0;whiteSpace=wrap;html=1;" parent="1" vertex="1">
          <mxGeometry x="-8.879999999999994" y="6860" width="92" height="60" as="geometry" />
        </mxCell>
        <mxCell id="ir0Q4uBNW8_hernkWuMR-18" value="调度器" style="ellipse;whiteSpace=wrap;html=1;aspect=fixed;" parent="1" vertex="1">
          <mxGeometry x="-78.18000000000002" y="6615" width="80" height="80" as="geometry" />
        </mxCell>
        <mxCell id="ir0Q4uBNW8_hernkWuMR-19" value="任务中心" style="ellipse;whiteSpace=wrap;html=1;aspect=fixed;" parent="1" vertex="1">
          <mxGeometry x="-195.00000000000003" y="6615" width="80" height="80" as="geometry" />
        </mxCell>
        <mxCell id="ir0Q4uBNW8_hernkWuMR-20" value="register&amp;amp;schedule" style="text;html=1;align=center;verticalAlign=middle;resizable=0;points=[];autosize=1;strokeColor=none;fillColor=none;" parent="1" vertex="1">
          <mxGeometry x="-157.17" y="6710" width="120" height="30" as="geometry" />
        </mxCell>
        <mxCell id="ir0Q4uBNW8_hernkWuMR-25" value="task1" style="text;html=1;align=center;verticalAlign=middle;resizable=0;points=[];autosize=1;strokeColor=none;fillColor=none;" parent="1" vertex="1">
          <mxGeometry x="-192.12" y="6790" width="50" height="30" as="geometry" />
        </mxCell>
        <mxCell id="ir0Q4uBNW8_hernkWuMR-27" value="task2" style="text;html=1;align=center;verticalAlign=middle;resizable=0;points=[];autosize=1;strokeColor=none;fillColor=none;" parent="1" vertex="1">
          <mxGeometry x="-22.42" y="6750" width="50" height="30" as="geometry" />
        </mxCell>
        <mxCell id="s5z-4QxD4FyvBJPL_da3-1" value="" style="shape=table;startSize=0;container=1;collapsible=0;childLayout=tableLayout;" parent="1" vertex="1">
          <mxGeometry x="60" y="3720" width="240" height="150" as="geometry" />
        </mxCell>
        <mxCell id="s5z-4QxD4FyvBJPL_da3-2" value="" style="shape=tableRow;horizontal=0;startSize=0;swimlaneHead=0;swimlaneBody=0;strokeColor=inherit;top=0;left=0;bottom=0;right=0;collapsible=0;dropTarget=0;fillColor=none;points=[[0,0.5],[1,0.5]];portConstraint=eastwest;" parent="s5z-4QxD4FyvBJPL_da3-1" vertex="1">
          <mxGeometry width="240" height="50" as="geometry" />
        </mxCell>
        <mxCell id="s5z-4QxD4FyvBJPL_da3-3" value="part" style="shape=partialRectangle;html=1;whiteSpace=wrap;connectable=0;strokeColor=inherit;overflow=hidden;fillColor=none;top=0;left=0;bottom=0;right=0;pointerEvents=1;" parent="s5z-4QxD4FyvBJPL_da3-2" vertex="1">
          <mxGeometry width="60" height="50" as="geometry">
            <mxRectangle width="60" height="50" as="alternateBounds" />
          </mxGeometry>
        </mxCell>
        <mxCell id="s5z-4QxD4FyvBJPL_da3-4" value="part" style="shape=partialRectangle;html=1;whiteSpace=wrap;connectable=0;strokeColor=inherit;overflow=hidden;fillColor=none;top=0;left=0;bottom=0;right=0;pointerEvents=1;" parent="s5z-4QxD4FyvBJPL_da3-2" vertex="1">
          <mxGeometry x="60" width="60" height="50" as="geometry">
            <mxRectangle width="60" height="50" as="alternateBounds" />
          </mxGeometry>
        </mxCell>
        <mxCell id="s5z-4QxD4FyvBJPL_da3-5" value="part" style="shape=partialRectangle;html=1;whiteSpace=wrap;connectable=0;strokeColor=inherit;overflow=hidden;fillColor=none;top=0;left=0;bottom=0;right=0;pointerEvents=1;" parent="s5z-4QxD4FyvBJPL_da3-2" vertex="1">
          <mxGeometry x="120" width="60" height="50" as="geometry">
            <mxRectangle width="60" height="50" as="alternateBounds" />
          </mxGeometry>
        </mxCell>
        <mxCell id="s5z-4QxD4FyvBJPL_da3-6" value="part" style="shape=partialRectangle;html=1;whiteSpace=wrap;connectable=0;strokeColor=inherit;overflow=hidden;fillColor=none;top=0;left=0;bottom=0;right=0;pointerEvents=1;" parent="s5z-4QxD4FyvBJPL_da3-2" vertex="1">
          <mxGeometry x="180" width="60" height="50" as="geometry">
            <mxRectangle width="60" height="50" as="alternateBounds" />
          </mxGeometry>
        </mxCell>
        <mxCell id="s5z-4QxD4FyvBJPL_da3-7" value="" style="shape=tableRow;horizontal=0;startSize=0;swimlaneHead=0;swimlaneBody=0;strokeColor=inherit;top=0;left=0;bottom=0;right=0;collapsible=0;dropTarget=0;fillColor=none;points=[[0,0.5],[1,0.5]];portConstraint=eastwest;" parent="s5z-4QxD4FyvBJPL_da3-1" vertex="1">
          <mxGeometry y="50" width="240" height="50" as="geometry" />
        </mxCell>
        <mxCell id="s5z-4QxD4FyvBJPL_da3-8" value="" style="shape=partialRectangle;html=1;whiteSpace=wrap;connectable=0;strokeColor=inherit;overflow=hidden;fillColor=none;top=0;left=0;bottom=0;right=0;pointerEvents=1;" parent="s5z-4QxD4FyvBJPL_da3-7" vertex="1">
          <mxGeometry width="60" height="50" as="geometry">
            <mxRectangle width="60" height="50" as="alternateBounds" />
          </mxGeometry>
        </mxCell>
        <mxCell id="s5z-4QxD4FyvBJPL_da3-9" value="part" style="shape=partialRectangle;html=1;whiteSpace=wrap;connectable=0;strokeColor=inherit;overflow=hidden;fillColor=none;top=0;left=0;bottom=0;right=0;pointerEvents=1;" parent="s5z-4QxD4FyvBJPL_da3-7" vertex="1">
          <mxGeometry x="60" width="60" height="50" as="geometry">
            <mxRectangle width="60" height="50" as="alternateBounds" />
          </mxGeometry>
        </mxCell>
        <mxCell id="s5z-4QxD4FyvBJPL_da3-10" value="part" style="shape=partialRectangle;html=1;whiteSpace=wrap;connectable=0;strokeColor=inherit;overflow=hidden;fillColor=none;top=0;left=0;bottom=0;right=0;pointerEvents=1;" parent="s5z-4QxD4FyvBJPL_da3-7" vertex="1">
          <mxGeometry x="120" width="60" height="50" as="geometry">
            <mxRectangle width="60" height="50" as="alternateBounds" />
          </mxGeometry>
        </mxCell>
        <mxCell id="s5z-4QxD4FyvBJPL_da3-11" value="part" style="shape=partialRectangle;html=1;whiteSpace=wrap;connectable=0;strokeColor=inherit;overflow=hidden;fillColor=none;top=0;left=0;bottom=0;right=0;pointerEvents=1;" parent="s5z-4QxD4FyvBJPL_da3-7" vertex="1">
          <mxGeometry x="180" width="60" height="50" as="geometry">
            <mxRectangle width="60" height="50" as="alternateBounds" />
          </mxGeometry>
        </mxCell>
        <mxCell id="s5z-4QxD4FyvBJPL_da3-12" value="" style="shape=tableRow;horizontal=0;startSize=0;swimlaneHead=0;swimlaneBody=0;strokeColor=inherit;top=0;left=0;bottom=0;right=0;collapsible=0;dropTarget=0;fillColor=none;points=[[0,0.5],[1,0.5]];portConstraint=eastwest;" parent="s5z-4QxD4FyvBJPL_da3-1" vertex="1">
          <mxGeometry y="100" width="240" height="50" as="geometry" />
        </mxCell>
        <mxCell id="s5z-4QxD4FyvBJPL_da3-13" value="" style="shape=partialRectangle;html=1;whiteSpace=wrap;connectable=0;strokeColor=inherit;overflow=hidden;fillColor=none;top=0;left=0;bottom=0;right=0;pointerEvents=1;" parent="s5z-4QxD4FyvBJPL_da3-12" vertex="1">
          <mxGeometry width="60" height="50" as="geometry">
            <mxRectangle width="60" height="50" as="alternateBounds" />
          </mxGeometry>
        </mxCell>
        <mxCell id="s5z-4QxD4FyvBJPL_da3-14" value="" style="shape=partialRectangle;html=1;whiteSpace=wrap;connectable=0;strokeColor=inherit;overflow=hidden;fillColor=none;top=0;left=0;bottom=0;right=0;pointerEvents=1;" parent="s5z-4QxD4FyvBJPL_da3-12" vertex="1">
          <mxGeometry x="60" width="60" height="50" as="geometry">
            <mxRectangle width="60" height="50" as="alternateBounds" />
          </mxGeometry>
        </mxCell>
        <mxCell id="s5z-4QxD4FyvBJPL_da3-15" value="" style="shape=partialRectangle;html=1;whiteSpace=wrap;connectable=0;strokeColor=inherit;overflow=hidden;fillColor=none;top=0;left=0;bottom=0;right=0;pointerEvents=1;" parent="s5z-4QxD4FyvBJPL_da3-12" vertex="1">
          <mxGeometry x="120" width="60" height="50" as="geometry">
            <mxRectangle width="60" height="50" as="alternateBounds" />
          </mxGeometry>
        </mxCell>
        <mxCell id="s5z-4QxD4FyvBJPL_da3-16" value="" style="shape=partialRectangle;html=1;whiteSpace=wrap;connectable=0;strokeColor=inherit;overflow=hidden;fillColor=none;top=0;left=0;bottom=0;right=0;pointerEvents=1;" parent="s5z-4QxD4FyvBJPL_da3-12" vertex="1">
          <mxGeometry x="180" width="60" height="50" as="geometry">
            <mxRectangle width="60" height="50" as="alternateBounds" />
          </mxGeometry>
        </mxCell>
        <mxCell id="SWTvNHedjEexJS_CHakL-12" style="edgeStyle=orthogonalEdgeStyle;rounded=0;orthogonalLoop=1;jettySize=auto;html=1;exitX=0.5;exitY=1;exitDx=0;exitDy=0;entryX=0.5;entryY=0;entryDx=0;entryDy=0;" parent="1" source="SWTvNHedjEexJS_CHakL-6" target="SWTvNHedjEexJS_CHakL-9" edge="1">
          <mxGeometry relative="1" as="geometry" />
        </mxCell>
        <mxCell id="SWTvNHedjEexJS_CHakL-6" value="证书校验&lt;br style=&quot;border-color: var(--border-color);&quot;&gt;(校验CA签名)" style="rounded=1;whiteSpace=wrap;html=1;" parent="1" vertex="1">
          <mxGeometry x="-476.3" y="4295" width="110" height="65" as="geometry" />
        </mxCell>
        <mxCell id="SWTvNHedjEexJS_CHakL-23" style="edgeStyle=orthogonalEdgeStyle;rounded=0;orthogonalLoop=1;jettySize=auto;html=1;exitX=0;exitY=0.5;exitDx=0;exitDy=0;entryX=1;entryY=0.5;entryDx=0;entryDy=0;" parent="1" source="SWTvNHedjEexJS_CHakL-7" target="1-QfFzFVaWJn7AieKZZL-106" edge="1">
          <mxGeometry relative="1" as="geometry" />
        </mxCell>
        <mxCell id="SWTvNHedjEexJS_CHakL-7" value="crt证书链" style="rounded=1;whiteSpace=wrap;html=1;" parent="1" vertex="1">
          <mxGeometry x="15.000000000000004" y="4124.5" width="110" height="65" as="geometry" />
        </mxCell>
        <mxCell id="SWTvNHedjEexJS_CHakL-13" style="edgeStyle=orthogonalEdgeStyle;rounded=0;orthogonalLoop=1;jettySize=auto;html=1;exitX=0.5;exitY=1;exitDx=0;exitDy=0;entryX=0.5;entryY=0;entryDx=0;entryDy=0;" parent="1" source="SWTvNHedjEexJS_CHakL-9" edge="1">
          <mxGeometry relative="1" as="geometry">
            <mxPoint x="-421" y="4510" as="targetPoint" />
          </mxGeometry>
        </mxCell>
        <mxCell id="SWTvNHedjEexJS_CHakL-26" style="edgeStyle=orthogonalEdgeStyle;rounded=0;orthogonalLoop=1;jettySize=auto;html=1;exitX=1;exitY=0.5;exitDx=0;exitDy=0;entryX=0;entryY=0.5;entryDx=0;entryDy=0;" parent="1" source="SWTvNHedjEexJS_CHakL-9" target="SWTvNHedjEexJS_CHakL-10" edge="1">
          <mxGeometry relative="1" as="geometry" />
        </mxCell>
        <mxCell id="SWTvNHedjEexJS_CHakL-9" value="生成预主密钥&lt;br style=&quot;border-color: var(--border-color);&quot;&gt;premaster secret" style="rounded=1;whiteSpace=wrap;html=1;" parent="1" vertex="1">
          <mxGeometry x="-476.3" y="4397.5" width="110" height="65" as="geometry" />
        </mxCell>
        <mxCell id="SWTvNHedjEexJS_CHakL-15" style="edgeStyle=orthogonalEdgeStyle;rounded=0;orthogonalLoop=1;jettySize=auto;html=1;exitX=0.5;exitY=1;exitDx=0;exitDy=0;" parent="1" source="SWTvNHedjEexJS_CHakL-10" edge="1">
          <mxGeometry relative="1" as="geometry">
            <mxPoint x="68.75" y="4510" as="targetPoint" />
          </mxGeometry>
        </mxCell>
        <mxCell id="SWTvNHedjEexJS_CHakL-27" style="edgeStyle=orthogonalEdgeStyle;rounded=0;orthogonalLoop=1;jettySize=auto;html=1;exitX=0;exitY=0.5;exitDx=0;exitDy=0;entryX=1;entryY=0.5;entryDx=0;entryDy=0;" parent="1" source="SWTvNHedjEexJS_CHakL-10" target="SWTvNHedjEexJS_CHakL-9" edge="1">
          <mxGeometry relative="1" as="geometry" />
        </mxCell>
        <mxCell id="SWTvNHedjEexJS_CHakL-10" value="收到预主密钥" style="rounded=1;whiteSpace=wrap;html=1;" parent="1" vertex="1">
          <mxGeometry x="14" y="4397.5" width="110" height="65" as="geometry" />
        </mxCell>
        <mxCell id="SWTvNHedjEexJS_CHakL-21" style="edgeStyle=orthogonalEdgeStyle;rounded=0;orthogonalLoop=1;jettySize=auto;html=1;exitX=1;exitY=0.5;exitDx=0;exitDy=0;entryX=0;entryY=0.5;entryDx=0;entryDy=0;" parent="1" source="SWTvNHedjEexJS_CHakL-19" target="SWTvNHedjEexJS_CHakL-20" edge="1">
          <mxGeometry relative="1" as="geometry" />
        </mxCell>
        <mxCell id="SWTvNHedjEexJS_CHakL-19" value="client random" style="rounded=1;whiteSpace=wrap;html=1;" parent="1" vertex="1">
          <mxGeometry x="-481.29999999999995" y="4222" width="120" height="40" as="geometry" />
        </mxCell>
        <mxCell id="SWTvNHedjEexJS_CHakL-22" style="edgeStyle=orthogonalEdgeStyle;rounded=0;orthogonalLoop=1;jettySize=auto;html=1;exitX=0;exitY=0.5;exitDx=0;exitDy=0;entryX=1;entryY=0.5;entryDx=0;entryDy=0;" parent="1" source="SWTvNHedjEexJS_CHakL-20" target="SWTvNHedjEexJS_CHakL-19" edge="1">
          <mxGeometry relative="1" as="geometry" />
        </mxCell>
        <mxCell id="SWTvNHedjEexJS_CHakL-20" value="server random" style="rounded=1;whiteSpace=wrap;html=1;" parent="1" vertex="1">
          <mxGeometry x="10.000000000000007" y="4222" width="120" height="40" as="geometry" />
        </mxCell>
        <mxCell id="SWTvNHedjEexJS_CHakL-31" value="个人密钥非对称加密" style="text;html=1;align=center;verticalAlign=middle;resizable=0;points=[];autosize=1;strokeColor=none;fillColor=none;" parent="1" vertex="1">
          <mxGeometry x="-248" y="4397.5" width="130" height="30" as="geometry" />
        </mxCell>
        <mxCell id="SWTvNHedjEexJS_CHakL-36" style="edgeStyle=orthogonalEdgeStyle;rounded=0;orthogonalLoop=1;jettySize=auto;html=1;exitX=1;exitY=0.5;exitDx=0;exitDy=0;" parent="1" source="SWTvNHedjEexJS_CHakL-32" target="SWTvNHedjEexJS_CHakL-33" edge="1">
          <mxGeometry relative="1" as="geometry" />
        </mxCell>
        <mxCell id="SWTvNHedjEexJS_CHakL-32" value="finish" style="ellipse;whiteSpace=wrap;html=1;aspect=fixed;" parent="1" vertex="1">
          <mxGeometry x="-461.65000000000003" y="4580" width="80" height="80" as="geometry" />
        </mxCell>
        <mxCell id="SWTvNHedjEexJS_CHakL-38" style="edgeStyle=orthogonalEdgeStyle;rounded=0;orthogonalLoop=1;jettySize=auto;html=1;exitX=0;exitY=0.5;exitDx=0;exitDy=0;entryX=1;entryY=0.5;entryDx=0;entryDy=0;" parent="1" source="SWTvNHedjEexJS_CHakL-33" target="SWTvNHedjEexJS_CHakL-32" edge="1">
          <mxGeometry relative="1" as="geometry" />
        </mxCell>
        <mxCell id="SWTvNHedjEexJS_CHakL-33" value="finish" style="ellipse;whiteSpace=wrap;html=1;aspect=fixed;" parent="1" vertex="1">
          <mxGeometry x="30" y="4580" width="80" height="80" as="geometry" />
        </mxCell>
        <mxCell id="SWTvNHedjEexJS_CHakL-40" style="edgeStyle=orthogonalEdgeStyle;rounded=0;orthogonalLoop=1;jettySize=auto;html=1;exitX=0.5;exitY=1;exitDx=0;exitDy=0;entryX=0.5;entryY=0;entryDx=0;entryDy=0;" parent="1" source="SWTvNHedjEexJS_CHakL-34" target="SWTvNHedjEexJS_CHakL-32" edge="1">
          <mxGeometry relative="1" as="geometry" />
        </mxCell>
        <mxCell id="SWTvNHedjEexJS_CHakL-34" value="各自生成会话密钥" style="rounded=1;whiteSpace=wrap;html=1;" parent="1" vertex="1">
          <mxGeometry x="-481.11999999999995" y="4510" width="120" height="40" as="geometry" />
        </mxCell>
        <mxCell id="SWTvNHedjEexJS_CHakL-39" style="edgeStyle=orthogonalEdgeStyle;rounded=0;orthogonalLoop=1;jettySize=auto;html=1;exitX=0.5;exitY=1;exitDx=0;exitDy=0;entryX=0.5;entryY=0;entryDx=0;entryDy=0;" parent="1" source="SWTvNHedjEexJS_CHakL-35" target="SWTvNHedjEexJS_CHakL-33" edge="1">
          <mxGeometry relative="1" as="geometry" />
        </mxCell>
        <mxCell id="SWTvNHedjEexJS_CHakL-35" value="各自生成会话密钥" style="rounded=1;whiteSpace=wrap;html=1;" parent="1" vertex="1">
          <mxGeometry x="9.75" y="4510" width="120" height="40" as="geometry" />
        </mxCell>
        <mxCell id="SWTvNHedjEexJS_CHakL-37" value="会话密钥对称加密" style="text;html=1;align=center;verticalAlign=middle;resizable=0;points=[];autosize=1;strokeColor=none;fillColor=none;" parent="1" vertex="1">
          <mxGeometry x="-248" y="4590" width="120" height="30" as="geometry" />
        </mxCell>
        <mxCell id="SWTvNHedjEexJS_CHakL-42" style="edgeStyle=orthogonalEdgeStyle;rounded=0;orthogonalLoop=1;jettySize=auto;html=1;exitX=0.5;exitY=1;exitDx=0;exitDy=0;entryX=0.5;entryY=0;entryDx=0;entryDy=0;" parent="1" source="SWTvNHedjEexJS_CHakL-41" target="ad75EcGbPsBwS58N0D---21" edge="1">
          <mxGeometry relative="1" as="geometry" />
        </mxCell>
        <mxCell id="SWTvNHedjEexJS_CHakL-43" style="edgeStyle=orthogonalEdgeStyle;rounded=0;orthogonalLoop=1;jettySize=auto;html=1;exitX=0.5;exitY=1;exitDx=0;exitDy=0;entryX=0.5;entryY=0;entryDx=0;entryDy=0;" parent="1" source="SWTvNHedjEexJS_CHakL-41" target="ad75EcGbPsBwS58N0D---18" edge="1">
          <mxGeometry relative="1" as="geometry" />
        </mxCell>
        <mxCell id="SWTvNHedjEexJS_CHakL-44" style="edgeStyle=orthogonalEdgeStyle;rounded=0;orthogonalLoop=1;jettySize=auto;html=1;exitX=0.5;exitY=1;exitDx=0;exitDy=0;entryX=0.5;entryY=0;entryDx=0;entryDy=0;" parent="1" source="SWTvNHedjEexJS_CHakL-41" target="ad75EcGbPsBwS58N0D---22" edge="1">
          <mxGeometry relative="1" as="geometry" />
        </mxCell>
        <mxCell id="SWTvNHedjEexJS_CHakL-41" value="" style="ellipse;whiteSpace=wrap;html=1;aspect=fixed;" parent="1" vertex="1">
          <mxGeometry x="399.5" y="2693" width="30" height="30" as="geometry" />
        </mxCell>
        <mxCell id="PlEMtsGBT9bYKuaQ5x43-1" value="P" style="text;html=1;align=center;verticalAlign=middle;resizable=0;points=[];autosize=1;strokeColor=none;fillColor=none;" parent="1" vertex="1">
          <mxGeometry x="-145" y="3740" width="30" height="30" as="geometry" />
        </mxCell>
        <mxCell id="zQ791yjo0WZYl8ZJU55g-1" value="" style="endArrow=classic;startArrow=classic;html=1;rounded=0;entryX=0;entryY=0.5;entryDx=0;entryDy=0;exitX=1;exitY=0.5;exitDx=0;exitDy=0;" edge="1" parent="1">
          <mxGeometry width="50" height="50" relative="1" as="geometry">
            <mxPoint x="-272.93999999999994" y="5190" as="sourcePoint" />
            <mxPoint x="0.9299999999999272" y="5190" as="targetPoint" />
          </mxGeometry>
        </mxCell>
        <mxCell id="zQ791yjo0WZYl8ZJU55g-3" value="" style="endArrow=classic;startArrow=classic;html=1;rounded=0;entryX=0;entryY=0.5;entryDx=0;entryDy=0;exitX=1;exitY=0.5;exitDx=0;exitDy=0;" edge="1" parent="1">
          <mxGeometry width="50" height="50" relative="1" as="geometry">
            <mxPoint x="-270.74999999999994" y="5230" as="sourcePoint" />
            <mxPoint x="3.1199999999999273" y="5230" as="targetPoint" />
          </mxGeometry>
        </mxCell>
        <mxCell id="zQ791yjo0WZYl8ZJU55g-4" value="确认机制" style="text;html=1;align=center;verticalAlign=middle;resizable=0;points=[];autosize=1;strokeColor=none;fillColor=none;" vertex="1" parent="1">
          <mxGeometry x="-176.42" y="5160" width="70" height="30" as="geometry" />
        </mxCell>
      </root>
    </mxGraphModel>
  </diagram>
</mxfile>
